<?xml version="1.0" encoding="utf-8"?><svg viewBox="0 0 233 170" xmlns="http://www.w3.org/2000/svg" xmlns:xlink="http://www.w3.org/1999/xlink"><style>:root>svg{display:none}:root>svg:target{display:block}</style><svg fill="none" viewBox="0 0 158 43" id="svg--clutch" xmlns="http://www.w3.org/2000/svg"><path d="M47.258 0h-7.725v42.094h7.724V0ZM72.93 29.338c0 6.584-6.05 7.078-7.791 7.078-4.31 0-5.387-3.868-5.387-6.172V14.03h-6.133v16.213c0 4.032 1.243 7.407 3.564 9.71C59.254 41.93 62.155 43 65.553 43c2.653 0 4.807-.823 7.377-2.305v1.153h7.044V14.03H72.93v15.307ZM94.3 4.526h-7.737v9.843h-4.317v5.414h4.317v22.311H94.3V19.783h5.213v-5.414H94.3V4.526ZM122.21 33.964c-1.648 1.389-3.707 2.124-5.848 2.043-4.943 0-8.649-3.514-8.649-8.253 0-4.822 3.542-8.09 8.649-8.09 2.141 0 4.283.735 5.93 2.043l1.071.898 4.777-4.576-1.235-1.062c-2.883-2.451-6.672-3.84-10.626-3.84-8.896 0-15.403 6.128-15.403 14.627 0 8.498 6.672 14.79 15.403 14.79a15.954 15.954 0 0 0 10.708-3.84l1.153-1.063-4.859-4.576-1.071.899ZM153.752 16.903c-2.066-1.969-5.04-3.036-8.427-3.036-2.644 0-5.453.82-7.436 2.298V0h-7.022v42.094h7.022V27.49c0-6.565 5.618-7.057 7.353-7.057 4.214 0 4.957 3.857 4.957 6.154v15.508h7.023V26.586c-.083-4.103-1.074-7.467-3.47-9.683Z" fill="#2E3032"/><path d="M116.099 33.042c2.886 0 5.225-2.229 5.225-4.979s-2.339-4.979-5.225-4.979c-2.886 0-5.226 2.23-5.226 4.98 0 2.749 2.34 4.978 5.226 4.978Z" fill="#FF3D2E"/><path d="M31.016 32.322c-2.729 2.629-6.45 4.19-10.338 4.107-8.024 0-13.813-5.995-13.813-14.209 0-8.213 5.79-14.291 13.813-14.291 3.887 0 7.61 1.478 10.256 4.107l1.075 1.067 4.797-4.6-1.075-1.067c-3.97-3.942-9.43-6.078-15.136-6.078C8.85 1.358 0 10.311 0 22.22 0 34.13 8.85 43 20.595 43c5.707 0 11.166-2.136 15.136-6.078l1.075-1.068-4.714-4.681-1.076 1.15Z" fill="#2E3032"/></svg><svg fill="none" viewBox="0 0 199 170" id="svg--clutchchampion" xmlns="http://www.w3.org/2000/svg"><g clip-path="url(#ba)"><path fill-rule="evenodd" clip-rule="evenodd" d="M28.56 111.005H0L10.076 95.79 0 79.762h28.56v31.243Z" fill="url(#bb)"/><path fill-rule="evenodd" clip-rule="evenodd" d="M170.44 111.005H199L188.923 95.79 199 79.762h-28.56v31.243Z" fill="url(#bc)"/><path d="m14.74 101.797 18.98 10.495L26.984 95.2H14.741v6.597Z" fill="#D1B685"/><path d="m184.075 101.797-18.979 10.495L171.83 95.2h12.245v6.597Z" fill="#A78557"/><g filter="url(#bd)"><path d="M176.889 42.482v85L99.979 170l-76.947-42.518v-85L99.98 0l76.91 42.482Z" fill="#17313B"/></g><g filter="url(#be)"><path d="M171.73 44.9v80.568l-72.025 40.305-72.066-40.305V44.899L99.705 4.595l72.025 40.304Z" fill="url(#bf)"/><path d="M171.73 44.9v80.568l-72.025 40.305-72.066-40.305V44.899L99.705 4.595l72.025 40.304Z" fill="url(#bg)"/></g><path d="M171.73 44.9v80.568l-72.025 40.305-72.066-40.305V44.899L99.705 4.595l72.025 40.304Z" stroke="#6DCDA9" stroke-width="10" stroke-miterlimit="10"/><path fill-rule="evenodd" clip-rule="evenodd" d="M14.74 101.816c0 .102.083.184.185.184h169.15a.184.184 0 0 0 .184-.184V70.941a.184.184 0 0 0-.184-.184H14.925a.184.184 0 0 0-.184.184v30.875Z" fill="url(#bh)"/><path d="M86.786 38.41h-3.132v17.093h3.132V38.41ZM97.196 50.323c0 2.674-2.453 2.874-3.159 2.874-1.748 0-2.184-1.57-2.184-2.506v-6.583h-2.487v6.583c0 1.637.504 3.007 1.445 3.943.84.802 2.016 1.236 3.394 1.236 1.076 0 1.95-.334 2.991-.935v.468h2.857V44.108h-2.857v6.215ZM105.862 40.249h-3.137v3.996h-1.751v2.199h1.751v9.059h3.137v-9.06h2.114v-2.198h-2.114V40.25ZM117.18 52.201a3.46 3.46 0 0 1-2.372.83c-2.004 0-3.507-1.427-3.507-3.351 0-1.958 1.436-3.285 3.507-3.285.869 0 1.737.298 2.405.83l.434.364 1.937-1.858-.501-.431c-1.169-.995-2.705-1.56-4.308-1.56-3.608 0-6.246 2.489-6.246 5.94 0 3.45 2.705 6.005 6.246 6.005a6.466 6.466 0 0 0 4.342-1.56l.467-.43-1.97-1.859-.434.365ZM129.97 45.274c-.838-.8-2.044-1.233-3.418-1.233-1.072 0-2.211.334-3.015.933v-6.563h-2.847v17.092h2.847v-5.93c0-2.666 2.278-2.866 2.982-2.866 1.709 0 2.01 1.566 2.01 2.499v6.297h2.848v-6.297c-.034-1.666-.436-3.032-1.407-3.932Z" fill="#fff"/><path d="M114.702 51.827c1.17 0 2.118-.905 2.118-2.022 0-1.116-.948-2.021-2.118-2.021-1.171 0-2.119.905-2.119 2.021 0 1.117.948 2.022 2.119 2.022Z" fill="#FF3D2E"/><path d="M80.2 51.535c-1.106 1.067-2.616 1.7-4.192 1.667-3.254 0-5.601-2.434-5.601-5.77 0-3.334 2.347-5.802 5.601-5.802 1.576 0 3.086.6 4.159 1.668l.436.433 1.945-1.867-.436-.434c-1.61-1.6-3.823-2.468-6.138-2.468-4.762 0-8.351 3.635-8.351 8.47 0 4.837 3.589 8.438 8.351 8.438 2.314 0 4.528-.867 6.138-2.468l.436-.433-1.912-1.901-.436.467ZM87.671 123.87v-10.42h4.037v1.042h-2.58v3.473h2v1.029h-2v4.876h-1.457Zm5.534 0 2.219-10.42h1.406l2.231 10.42h-1.38l-.477-2.624h-2.128l-.504 2.624h-1.367Zm2.064-3.666h1.741l-.877-4.696-.864 4.696Zm6.142 3.666v-10.42h1.457v9.378h2.67v1.042h-4.127Zm6.416 0v-10.42h1.458v9.378h2.67v1.042h-4.128ZM87.618 144.638v-.838l2.277-3.54c.17-.265.324-.511.465-.739.147-.228.265-.466.353-.716.096-.258.144-.552.144-.883 0-.411-.066-.735-.199-.97s-.365-.353-.697-.353c-.28 0-.497.077-.652.232a1.23 1.23 0 0 0-.32.606c-.06.25-.089.518-.089.805v.298h-1.183v-.309c0-.536.07-.996.21-1.378.148-.39.38-.691.697-.904.324-.214.752-.32 1.282-.32.722 0 1.26.206 1.614.617.354.405.531.967.531 1.687 0 .383-.048.717-.144 1.004a3.753 3.753 0 0 1-.353.805c-.148.25-.31.507-.487.772l-2.056 3.131h2.83v.993h-4.223Zm8.795.099c-.509 0-.929-.114-1.26-.342a2.071 2.071 0 0 1-.73-.937 3.713 3.713 0 0 1-.232-1.356v-3.849c0-.522.077-.978.232-1.367.154-.397.394-.706.718-.926.332-.221.756-.331 1.272-.331s.936.11 1.26.331c.324.22.564.529.719.926.154.389.232.845.232 1.367v3.849c0 .514-.081.97-.243 1.367a2.002 2.002 0 0 1-.719.937c-.324.221-.74.331-1.25.331Zm0-.97c.28 0 .49-.081.63-.243.147-.162.247-.367.298-.617.06-.258.089-.522.089-.794v-3.871c0-.287-.026-.555-.078-.805a1.216 1.216 0 0 0-.298-.617c-.14-.155-.354-.232-.641-.232-.288 0-.505.077-.653.232-.147.154-.246.36-.298.617-.052.25-.077.518-.077.805v3.871c0 .272.025.536.077.794.059.25.162.455.31.617.154.162.368.243.64.243Zm4.406.871v-.838l2.278-3.54c.169-.265.324-.511.464-.739.148-.228.266-.466.354-.716a2.52 2.52 0 0 0 .144-.883c0-.411-.067-.735-.199-.97-.133-.235-.365-.353-.697-.353-.28 0-.497.077-.652.232a1.23 1.23 0 0 0-.321.606c-.059.25-.088.518-.088.805v.298h-1.183v-.309c0-.536.07-.996.21-1.378.147-.39.38-.691.697-.904.324-.214.751-.32 1.282-.32.722 0 1.26.206 1.614.617.354.405.531.967.531 1.687 0 .383-.048.717-.144 1.004a3.705 3.705 0 0 1-.354.805c-.147.25-.309.507-.486.772l-2.057 3.131h2.831v.993h-4.224Zm8.564.099c-.487 0-.892-.092-1.217-.276a1.73 1.73 0 0 1-.729-.794c-.162-.345-.243-.753-.243-1.224v-.297h1.171v.198c.008.265.037.504.089.717.059.213.158.382.298.507.148.125.358.188.631.188.287 0 .504-.066.652-.199.147-.139.247-.334.298-.584.052-.25.078-.537.078-.86 0-.471-.089-.853-.266-1.147-.169-.302-.471-.467-.906-.496a.272.272 0 0 0-.089-.011h-.077v-1.18h.155c.42-.015.722-.125.906-.331.185-.206.277-.548.277-1.026 0-.404-.07-.727-.21-.97-.133-.243-.402-.364-.807-.364-.406 0-.675.136-.807.408-.133.265-.207.607-.222 1.026v.187h-1.171v-.298c0-.477.081-.885.243-1.224.162-.338.405-.599.729-.783.332-.183.741-.275 1.228-.275.493 0 .902.092 1.227.275.324.184.567.449.729.794.163.339.244.747.244 1.224 0 .537-.118.967-.354 1.291a1.704 1.704 0 0 1-.929.661c.273.081.501.221.686.419.191.199.339.452.442.761.103.301.155.654.155 1.059 0 .529-.074.992-.221 1.389a1.88 1.88 0 0 1-.708.915c-.324.214-.752.32-1.282.32ZM58.393 95.039c-1.115 0-1.992-.22-2.631-.657a3.44 3.44 0 0 1-1.316-1.78c-.25-.763-.376-1.638-.376-2.625V84.56c0-1.038.125-1.937.376-2.7.25-.762.69-1.35 1.316-1.762.639-.412 1.516-.618 2.63-.618 1.053 0 1.874.18 2.463.543.601.35 1.027.856 1.278 1.519.25.662.376 1.43.376 2.305v1.275H59.84V83.81c0-.425-.025-.813-.075-1.162-.038-.35-.157-.625-.357-.825-.188-.213-.52-.319-.996-.319-.477 0-.827.112-1.053.337-.213.213-.35.507-.413.882a7.322 7.322 0 0 0-.094 1.237v6.598c0 .55.044 1.006.131 1.369.088.35.245.618.47.806.238.175.558.262.959.262.463 0 .789-.106.977-.318.2-.225.326-.519.376-.881.05-.363.075-.769.075-1.219V89.21h2.669v1.218c0 .9-.12 1.7-.357 2.4a3.141 3.141 0 0 1-1.26 1.63c-.588.388-1.422.582-2.5.582Zm7.97-.207V79.648h2.762v6.355h3.101v-6.355h2.782v15.184h-2.782v-6.86h-3.1v6.86h-2.764Zm12.083 0 3.045-15.184h2.97l3.044 15.184H84.93l-.601-3.505h-2.65l-.62 3.505h-2.613Zm3.515-5.267h2.067l-1.034-6.374-1.033 6.374Zm8.917 5.267.263-15.184h2.875l2.162 10.517 2.255-10.517h2.782l.282 15.184h-2.068l-.225-10.553-2.161 10.553H95.37l-2.2-10.591-.206 10.591h-2.086Zm14.746 0V79.648h4.473c.915 0 1.654.169 2.218.506.577.338.996.831 1.259 1.481.276.638.414 1.412.414 2.325 0 .987-.169 1.787-.508 2.4a3.023 3.023 0 0 1-1.428 1.311c-.601.275-1.316.413-2.143.413h-1.503v6.748h-2.782Zm2.782-8.698h1.052c.502 0 .89-.068 1.166-.206.288-.15.482-.381.582-.694.113-.324.169-.756.169-1.293 0-.55-.043-.993-.131-1.33-.075-.35-.251-.607-.526-.77-.263-.162-.683-.243-1.26-.243h-1.052v4.536Zm9.084 8.698V79.648h2.744v15.184h-2.744Zm11.115.207c-1.078 0-1.936-.2-2.575-.6-.639-.4-1.096-.975-1.372-1.725-.276-.75-.413-1.637-.413-2.662v-5.68c0-1.025.137-1.9.413-2.624.276-.738.733-1.3 1.372-1.687.639-.388 1.497-.582 2.575-.582 1.103 0 1.967.194 2.594.582.639.387 1.096.95 1.372 1.687.288.725.432 1.6.432 2.624v5.699c0 1.012-.144 1.893-.432 2.643a3.42 3.42 0 0 1-1.372 1.725c-.627.4-1.491.6-2.594.6Zm0-2.044c.464 0 .802-.1 1.015-.3.225-.2.376-.474.451-.824.075-.35.113-.731.113-1.144v-6.992c0-.425-.038-.806-.113-1.144-.075-.337-.226-.6-.451-.787-.213-.2-.551-.3-1.015-.3-.439 0-.771.1-.996.3-.226.187-.376.45-.451.787a5.289 5.289 0 0 0-.113 1.144v6.992c0 .412.031.794.094 1.144.075.35.226.624.451.824.226.2.564.3 1.015.3Zm8.335 1.837V79.648h1.936l3.702 8.66v-8.66h2.293v15.184h-1.842l-3.721-9.073v9.073h-2.368Z" fill="#fff"/></g><defs><linearGradient id="bb" x1="1.19" y1="37.688" x2="57.612" y2="86.553" gradientUnits="userSpaceOnUse"><stop stop-color="#D2AE73"/><stop offset=".123" stop-color="#BD9155"/><stop offset=".317" stop-color="#F9E2B2"/><stop offset=".969" stop-color="#BD9155"/></linearGradient><linearGradient id="bc" x1="197.81" y1="37.688" x2="141.388" y2="86.553" gradientUnits="userSpaceOnUse"><stop stop-color="#D2AE73"/><stop offset=".123" stop-color="#BD9155"/><stop offset=".317" stop-color="#F9E2B2"/><stop offset=".969" stop-color="#BD9155"/></linearGradient><linearGradient id="bh" x1="21.804" y1="28.683" x2="43.175" y2="138.539" gradientUnits="userSpaceOnUse"><stop stop-color="#D2AE73"/><stop offset=".123" stop-color="#BD9155"/><stop offset=".317" stop-color="#F9E2B2"/><stop offset=".969" stop-color="#BD9155"/></linearGradient><radialGradient id="bf" cx="0" cy="0" r="1" gradientUnits="userSpaceOnUse" gradientTransform="matrix(-140.95355 161.18015 -324.13155 -283.45608 168.594 4.595)"><stop stop-color="#17313B"/><stop offset="1" stop-color="#2E5272"/></radialGradient><radialGradient id="bg" cx="0" cy="0" r="1" gradientUnits="userSpaceOnUse" gradientTransform="matrix(-140.95355 161.18015 -324.13155 -283.45608 168.594 4.595)"><stop stop-color="#17313B"/><stop offset="1" stop-color="#2E5272"/></radialGradient><filter id="bd" x="23.032" y="0" width="153.856" height="174" filterUnits="userSpaceOnUse" color-interpolation-filters="sRGB"><feFlood flood-opacity="0" result="BackgroundImageFix"/><feBlend in="SourceGraphic" in2="BackgroundImageFix" result="shape"/><feColorMatrix in="SourceAlpha" values="0 0 0 0 0 0 0 0 0 0 0 0 0 0 0 0 0 0 127 0" result="hardAlpha"/><feOffset dy="4"/><feGaussianBlur stdDeviation="2"/><feComposite in2="hardAlpha" operator="arithmetic" k2="-1" k3="1"/><feColorMatrix values="0 0 0 0 0 0 0 0 0 0 0 0 0 0 0 0 0 0 0.1 0"/><feBlend in2="shape" result="effect1_innerShadow_64_268"/></filter><filter id="be" x="27.639" y="4.595" width="144.091" height="165.178" filterUnits="userSpaceOnUse" color-interpolation-filters="sRGB"><feFlood flood-opacity="0" result="BackgroundImageFix"/><feBlend in="SourceGraphic" in2="BackgroundImageFix" result="shape"/><feColorMatrix in="SourceAlpha" values="0 0 0 0 0 0 0 0 0 0 0 0 0 0 0 0 0 0 127 0" result="hardAlpha"/><feOffset dy="4"/><feGaussianBlur stdDeviation="2"/><feComposite in2="hardAlpha" operator="arithmetic" k2="-1" k3="1"/><feColorMatrix values="0 0 0 0 0 0 0 0 0 0 0 0 0 0 0 0 0 0 0.07 0"/><feBlend in2="shape" result="effect1_innerShadow_64_268"/></filter><clipPath id="ba"><path fill="#fff" d="M0 0h199v170H0z"/></clipPath></defs></svg><svg fill="none" viewBox="0 0 198 170" id="svg--clutchglobal" xmlns="http://www.w3.org/2000/svg"><g clip-path="url(#ca)"><path fill-rule="evenodd" clip-rule="evenodd" d="M28.417 110.949H0l10.026-15.183L0 79.773h28.417v31.176ZM169.583 110.949H198l-10.027-15.183L198 79.773h-28.417v31.176Z" fill="#6DCDA9"/><path d="m14.667 101.761 18.883 10.472-6.7-17.055H14.667v6.583ZM183.15 101.761l-18.883 10.472 6.7-17.055h12.183v6.583Z" fill="#5EAF91"/><g filter="url(#cb)"><path d="M176 42.574v84.816l-76.523 42.427-76.56-42.427V42.574L99.477.184 176 42.573Z" fill="#17313B"/></g><path d="M176 42.574v84.816l-76.523 42.427-76.56-42.427V42.574L99.477.184 176 42.573Z" stroke="#6DCDA9" stroke-miterlimit="10"/><g filter="url(#cc)"><path d="M168.483 46.177v77.645l-69.188 38.842-69.228-38.842V46.177L99.295 7.335l69.188 38.842Z" fill="url(#cd)"/><path d="M168.483 46.177v77.645l-69.188 38.842-69.228-38.842V46.177L99.295 7.335l69.188 38.842Z" fill="url(#ce)"/></g><path d="M169.4 46.177v-.536l-.468-.263L99.743 6.536l-.448-.252-.449.252-69.228 38.842-.468.263v78.718l.468.263 69.228 38.842.449.252.448-.252 69.189-38.842.468-.263V46.177Z" stroke="url(#cf)" stroke-width="10" stroke-miterlimit="10"/><path fill-rule="evenodd" clip-rule="evenodd" d="M14.667 101.78c0 .101.082.183.183.183h168.3a.183.183 0 0 0 .183-.183V70.97a.183.183 0 0 0-.183-.183H14.85a.183.183 0 0 0-.183.184v30.809Z" fill="#6DCDA9"/><path d="M86.35 36.678h-3.117v17.055h3.117V36.678ZM96.708 48.564c0 2.668-2.441 2.868-3.143 2.868-1.74 0-2.174-1.567-2.174-2.501v-6.569h-2.474v6.569c0 1.634.501 3 1.438 3.935.835.8 2.006 1.233 3.377 1.233 1.07 0 1.94-.333 2.976-.933v.467h2.842v-11.27h-2.842v6.201ZM105.33 38.511h-3.122V42.5h-1.741v2.194h1.741v9.04h3.122v-9.04h2.103v-2.194h-2.103v-3.988ZM116.591 50.438a3.437 3.437 0 0 1-2.36.828c-1.994 0-3.489-1.424-3.489-3.344 0-1.953 1.429-3.278 3.489-3.278.864 0 1.728.298 2.393.828l.432.364 1.927-1.854-.498-.43c-1.163-.993-2.692-1.556-4.287-1.556-3.589 0-6.215 2.483-6.215 5.926s2.692 5.992 6.215 5.992a6.42 6.42 0 0 0 4.32-1.556l.465-.43-1.96-1.854-.432.364ZM129.317 43.526c-.834-.798-2.034-1.23-3.4-1.23-1.067 0-2.2.332-3 .93v-6.548h-2.834v17.055h2.834v-5.918c0-2.66 2.266-2.86 2.966-2.86 1.7 0 2 1.563 2 2.494v6.284h2.834v-6.284c-.034-1.662-.434-3.025-1.4-3.923Z" fill="#fff"/><path d="M114.125 50.065c1.164 0 2.108-.904 2.108-2.018 0-1.114-.944-2.017-2.108-2.017-1.164 0-2.108.903-2.108 2.017 0 1.114.944 2.018 2.108 2.018Z" fill="#FF3D2E"/><path d="M79.797 49.773c-1.1 1.065-2.602 1.697-4.17 1.664-3.238 0-5.574-2.43-5.574-5.757 0-3.328 2.336-5.79 5.573-5.79 1.569 0 3.07.599 4.138 1.664l.434.432 1.935-1.863-.433-.433c-1.602-1.597-3.805-2.462-6.107-2.462-4.739 0-8.31 3.627-8.31 8.452s3.571 8.42 8.31 8.42c2.302 0 4.505-.866 6.107-2.463l.433-.433-1.902-1.897-.434.466ZM87.231 123.603v-10.398h4.017v1.04H88.68v3.466h1.99v1.027h-1.99v4.865h-1.45Zm5.506 0 2.207-10.398h1.4l2.22 10.398H97.19l-.475-2.619h-2.117l-.5 2.619h-1.361Zm2.053-3.659h1.733l-.873-4.685-.86 4.685Zm6.111 3.659v-10.398h1.451v9.358h2.656v1.04h-4.107Zm6.384 0v-10.398h1.451v9.358h2.656v1.04h-4.107ZM89.346 143.225v-.696l1.889-2.944c.14-.22.269-.425.385-.614.122-.19.22-.388.293-.596.08-.214.12-.459.12-.734 0-.342-.056-.611-.166-.807-.11-.195-.302-.293-.577-.293-.233 0-.413.064-.541.193a1.025 1.025 0 0 0-.266.504 2.918 2.918 0 0 0-.073.669v.248h-.981v-.257c0-.446.058-.828.174-1.146.122-.324.315-.575.578-.752.269-.177.623-.266 1.063-.266.599 0 1.045.171 1.338.514.294.336.44.803.44 1.402 0 .318-.04.596-.119.835a3.135 3.135 0 0 1-.293.669 13.42 13.42 0 0 1-.404.642l-1.705 2.604h2.347v.825h-3.502Zm7.293.083c-.422 0-.77-.095-1.045-.284-.27-.19-.47-.45-.605-.78a3.093 3.093 0 0 1-.193-1.128v-3.2c0-.434.064-.813.193-1.137.128-.33.327-.586.596-.77.275-.183.626-.275 1.054-.275.428 0 .776.092 1.045.275.269.184.467.44.596.77.128.324.192.703.192 1.137v3.2c0 .428-.067.807-.201 1.137-.129.331-.327.59-.596.78-.27.183-.614.275-1.036.275Zm0-.807c.232 0 .406-.067.522-.202.123-.134.205-.305.248-.513.049-.214.073-.434.073-.66v-3.219c0-.238-.021-.461-.064-.669a1.017 1.017 0 0 0-.247-.514c-.117-.128-.294-.192-.532-.192-.239 0-.419.064-.54.192-.123.129-.206.3-.248.514a3.317 3.317 0 0 0-.065.669v3.219c0 .226.022.446.065.66.049.208.134.379.256.513.129.135.306.202.532.202Zm3.654.724v-.696l1.888-2.944c.141-.22.269-.425.385-.614.122-.19.22-.388.293-.596.08-.214.12-.459.12-.734 0-.342-.055-.611-.165-.807-.11-.195-.303-.293-.578-.293-.232 0-.412.064-.541.193a1.028 1.028 0 0 0-.266.504 2.913 2.913 0 0 0-.073.669v.248h-.981v-.257c0-.446.058-.828.174-1.146.123-.324.315-.575.578-.752.269-.177.623-.266 1.063-.266.599 0 1.045.171 1.339.514.293.336.44.803.44 1.402 0 .318-.04.596-.12.835a3.134 3.134 0 0 1-.293.669c-.122.208-.257.422-.403.642l-1.705 2.604h2.346v.825h-3.501Zm7.1.083c-.404 0-.74-.077-1.009-.229a1.447 1.447 0 0 1-.605-.66 2.392 2.392 0 0 1-.201-1.018v-.248h.971v.165c.006.22.031.419.074.596a.853.853 0 0 0 .247.422c.122.104.297.156.523.156.238 0 .418-.055.541-.165a.901.901 0 0 0 .247-.486c.043-.208.064-.446.064-.715 0-.392-.073-.71-.22-.954-.14-.251-.391-.388-.751-.413a.248.248 0 0 0-.074-.009h-.064v-.981h.128c.349-.012.599-.104.752-.275.153-.171.229-.455.229-.853 0-.336-.058-.605-.174-.807-.11-.201-.333-.302-.669-.302s-.559.113-.669.339c-.11.22-.171.504-.184.853v.156h-.971v-.248c0-.397.067-.737.201-1.018.135-.281.336-.498.605-.651.275-.152.615-.229 1.018-.229.409 0 .748.077 1.017.229.269.153.471.373.605.66.135.282.202.621.202 1.018 0 .446-.098.804-.293 1.073a1.41 1.41 0 0 1-.77.55c.226.068.415.184.568.349.159.165.281.376.367.632.085.251.128.545.128.881 0 .44-.061.825-.183 1.155a1.564 1.564 0 0 1-.587.761c-.269.177-.623.266-1.063.266ZM70.819 95.017c-.998 0-1.79-.212-2.375-.636-.586-.424-1.01-1.023-1.272-1.796-.249-.785-.374-1.708-.374-2.768v-5.088c0-1.085.125-2.02.374-2.806.25-.785.686-1.384 1.31-1.796.635-.424 1.508-.636 2.617-.636 1.035 0 1.858.175 2.469.524.61.35 1.047.854 1.309 1.515.274.649.411 1.44.411 2.376v.785h-2.637v-.86c0-.486-.037-.904-.112-1.253-.062-.35-.2-.611-.411-.786-.2-.187-.53-.28-.991-.28-.487 0-.842.118-1.066.355-.212.237-.35.549-.412.935-.05.387-.074.81-.074 1.272v6.341c0 .524.043.98.13 1.366.088.386.25.686.487.898.237.2.573.3 1.01.3.448 0 .791-.113 1.028-.338.237-.224.399-.536.486-.935.1-.399.15-.873.15-1.422v-1.421h-1.627v-1.74h4.114v7.688h-1.777l-.205-1.496c-.2.499-.505.91-.917 1.234-.398.312-.947.468-1.645.468Zm8.52-.206V79.66h2.767v13.243h3.665v1.908h-6.433Zm13.672.206c-1.072 0-1.926-.2-2.562-.599-.636-.399-1.09-.972-1.365-1.72-.275-.749-.412-1.634-.412-2.657v-5.667c0-1.023.138-1.896.412-2.62.274-.735.73-1.296 1.365-1.683.636-.386 1.49-.58 2.562-.58 1.097 0 1.957.194 2.58.58.636.387 1.091.948 1.366 1.684.286.723.43 1.596.43 2.619v5.686c0 1.01-.144 1.89-.43 2.638a3.409 3.409 0 0 1-1.366 1.72c-.623.4-1.483.599-2.58.599Zm0-2.039c.461 0 .798-.1 1.01-.3.224-.199.374-.473.448-.822.075-.35.113-.73.113-1.141v-6.978c0-.423-.038-.804-.113-1.14-.074-.337-.224-.6-.448-.786-.212-.2-.549-.3-1.01-.3-.436 0-.767.1-.991.3-.225.187-.374.449-.45.785a5.281 5.281 0 0 0-.111 1.141v6.978c0 .411.03.792.093 1.14.075.35.225.624.449.824.224.2.561.3 1.01.3Zm8.293 1.833V79.66h3.721c.673 0 1.278.062 1.814.187.548.125 1.016.337 1.402.636.399.287.705.68.917 1.178.212.499.318 1.129.318 1.89 0 .61-.088 1.134-.262 1.57a2.369 2.369 0 0 1-.73 1.048c-.324.25-.729.418-1.215.505.598.1 1.091.312 1.477.636.399.312.692.724.879 1.235.2.511.299 1.128.299 1.852 0 .723-.093 1.365-.28 1.926a3.48 3.48 0 0 1-.804 1.385 3.338 3.338 0 0 1-1.328.823c-.524.187-1.141.28-1.851.28h-4.357Zm2.767-1.945h1.047c.836 0 1.403-.2 1.702-.599.299-.411.449-1.041.449-1.889 0-.611-.075-1.104-.224-1.478a1.533 1.533 0 0 0-.711-.86c-.324-.187-.76-.28-1.309-.28h-.954v5.106Zm0-7.015h.935c.549 0 .973-.08 1.272-.243.299-.162.505-.411.617-.748.125-.337.187-.76.187-1.272 0-.536-.094-.948-.281-1.235-.174-.299-.442-.498-.804-.598-.361-.112-.822-.169-1.383-.169h-.543v4.265Zm8.727 8.96 3.029-15.151h2.955l3.029 15.151h-2.562l-.598-3.498h-2.637l-.617 3.498h-2.599Zm3.497-5.256h2.057l-1.029-6.36-1.028 6.36Zm8.91 5.256V79.66h2.767v13.243h3.665v1.908h-6.432Z" fill="#fff"/></g><defs><radialGradient id="cd" cx="0" cy="0" r="1" gradientUnits="userSpaceOnUse" gradientTransform="rotate(131.08 81.067 41.303) scale(206.063 414.21)"><stop stop-color="#17313B"/><stop offset="1" stop-color="#2E5272"/></radialGradient><radialGradient id="ce" cx="0" cy="0" r="1" gradientUnits="userSpaceOnUse" gradientTransform="rotate(131.08 81.067 41.303) scale(206.063 414.21)"><stop stop-color="#17313B"/><stop offset="1" stop-color="#2E5272"/></radialGradient><filter id="cb" x="22.917" y=".183" width="153.083" height="173.633" filterUnits="userSpaceOnUse" color-interpolation-filters="sRGB"><feFlood flood-opacity="0" result="BackgroundImageFix"/><feBlend in="SourceGraphic" in2="BackgroundImageFix" result="shape"/><feColorMatrix in="SourceAlpha" values="0 0 0 0 0 0 0 0 0 0 0 0 0 0 0 0 0 0 127 0" result="hardAlpha"/><feOffset dy="4"/><feGaussianBlur stdDeviation="2"/><feComposite in2="hardAlpha" operator="arithmetic" k2="-1" k3="1"/><feColorMatrix values="0 0 0 0 0 0 0 0 0 0 0 0 0 0 0 0 0 0 0.1 0"/><feBlend in2="shape" result="effect1_innerShadow_64_290"/></filter><filter id="cc" x="30.067" y="7.335" width="138.417" height="159.329" filterUnits="userSpaceOnUse" color-interpolation-filters="sRGB"><feFlood flood-opacity="0" result="BackgroundImageFix"/><feBlend in="SourceGraphic" in2="BackgroundImageFix" result="shape"/><feColorMatrix in="SourceAlpha" values="0 0 0 0 0 0 0 0 0 0 0 0 0 0 0 0 0 0 127 0" result="hardAlpha"/><feOffset dy="4"/><feGaussianBlur stdDeviation="2"/><feComposite in2="hardAlpha" operator="arithmetic" k2="-1" k3="1"/><feColorMatrix values="0 0 0 0 0 0 0 0 0 0 0 0 0 0 0 0 0 0 0.07 0"/><feBlend in2="shape" result="effect1_innerShadow_64_290"/></filter><linearGradient id="cf" x1="35.834" y1="-201.842" x2="315.237" y2="34.048" gradientUnits="userSpaceOnUse"><stop stop-color="#D2AE73"/><stop offset=".123" stop-color="#BD9155"/><stop offset=".317" stop-color="#F9E2B2"/><stop offset=".969" stop-color="#BD9155"/></linearGradient><clipPath id="ca"><path fill="#fff" d="M0 0h198v170H0z"/></clipPath></defs></svg><svg fill="none" viewBox="0 0 233 45" id="svg--logo" xmlns="http://www.w3.org/2000/svg"><path fill-rule="evenodd" clip-rule="evenodd" d="M139.189 31.058c-.983.645-2.286.968-3.91.968-1.764 0-3.183-.414-4.258-1.242a4.378 4.378 0 0 1-1.252-1.488 4.303 4.303 0 0 1-.476-1.874H125c0 1.457.458 2.878 1.312 4.069a8.646 8.646 0 0 0 3.631 2.929 12.844 12.844 0 0 0 5.337 1.049c2.862 0 5.19-.665 6.984-1.994a6.337 6.337 0 0 0 2.017-2.32c.469-.924.7-1.947.674-2.98a5.733 5.733 0 0 0-.963-3.362 7.577 7.577 0 0 0-2.959-2.36 23.468 23.468 0 0 0-5.207-1.686c-2.143-.471-3.624-.965-4.443-1.482a2.574 2.574 0 0 1-.935-.985 2.523 2.523 0 0 1-.295-1.315 3.11 3.11 0 0 1 .333-1.472 3.18 3.18 0 0 1 .989-1.151c.882-.669 2.104-1.003 3.666-1.003a5.673 5.673 0 0 1 3.772 1.253c.464.354.839.806 1.098 1.324.26.517.396 1.086.399 1.663h4.316a6.787 6.787 0 0 0-.667-3.077 6.892 6.892 0 0 0-1.99-2.462c-1.774-1.444-4.084-2.167-6.929-2.167-2.706 0-4.93.7-6.671 2.099-1.741 1.399-2.611 3.107-2.61 5.125a5.384 5.384 0 0 0 .916 3.148 7.342 7.342 0 0 0 2.831 2.28 21.886 21.886 0 0 0 5.174 1.64c2.173.456 3.697 1 4.571 1.63.426.3.769.7.998 1.165.229.463.337.976.314 1.49a2.932 2.932 0 0 1-.386 1.488 3 3 0 0 1-1.088 1.1Zm10.696-8.309c0 3.83 1.055 6.907 3.167 9.232 2.112 2.324 4.869 3.487 8.272 3.487 2.113.04 4.193-.514 5.998-1.596a10.54 10.54 0 0 0 4.014-4.456 14.486 14.486 0 0 0 1.406-6.462v-.296c0-3.86-1.056-6.952-3.168-9.277-2.111-2.325-4.877-3.488-8.297-3.488a11.14 11.14 0 0 0-5.904 1.574 10.693 10.693 0 0 0-4.037 4.468 14.35 14.35 0 0 0-1.451 6.52v.296-.002Zm6.265-6.907a6.145 6.145 0 0 1 2.253-1.862 6.251 6.251 0 0 1 2.874-.622 6.325 6.325 0 0 1 2.921.626 6.219 6.219 0 0 1 2.289 1.892c1.307 1.68 1.96 3.872 1.96 6.578 0 3.024-.642 5.376-1.927 7.055a6.557 6.557 0 0 1-2.295 1.85 6.659 6.659 0 0 1-5.78.02 6.55 6.55 0 0 1-2.308-1.836c-1.292-1.656-1.938-3.852-1.938-6.587.001-3.085.651-5.457 1.951-7.114Zm38.04 19.17h4.084V10.349h-4.294v17.939c-1.083 2.401-3.264 3.602-6.543 3.601-3.094 0-4.64-1.869-4.64-5.607V10.349h-4.292v16.047c.015 2.994.723 5.254 2.123 6.78 1.401 1.526 3.439 2.29 6.114 2.29 3.233 0 5.685-.964 7.355-2.894l.093 2.44ZM209.933 0h-4.293v35.012h4.293V0Z" fill="#fff" fill-opacity=".3"/><path fill-rule="evenodd" clip-rule="evenodd" d="m115.749 25.361-2.047-1.912 4.631-13.1h2.993l-5.577 15.012Zm-5.699 15.122c-1.377 2.994-3.504 4.49-6.381 4.49a7.911 7.911 0 0 1-2.134-.319l-.024-2.257 1.439.137a5.21 5.21 0 0 0 3.307-.991c.843-.661 1.558-1.797 2.146-3.408l1.23-3.328-9.468-24.458h3.039L111 31.092l.123-.342 1.335 3.476-1.85 4.98-.558 1.277ZM92.542 31.73c-1.779 2.492-4.393 3.738-7.842 3.738a8.488 8.488 0 0 1-3.928-.863 8.342 8.342 0 0 1-3.066-2.567c-1.77-2.287-2.656-5.376-2.656-9.266v-.32c0-3.83.87-6.88 2.61-9.152a8.377 8.377 0 0 1 3.112-2.572 8.522 8.522 0 0 1 3.975-.835c3.388 0 5.97 1.315 7.75 3.944V0h2.76v35.012h-2.599l-.116-3.282Zm-.046-14.657c-1.439-3.206-3.852-4.81-7.24-4.81a6.392 6.392 0 0 0-3.08.658 6.28 6.28 0 0 0-2.372 2.044c-1.3 1.8-1.95 4.456-1.95 7.966 0 3.146.643 5.627 1.927 7.443a6.202 6.202 0 0 0 2.353 2.06c.95.477 2.01.706 3.076.664 3.418 0 5.847-1.481 7.286-4.444v-11.58Zm-26.741 1.733c-.016-2.203-.491-3.845-1.427-4.924-.936-1.079-2.432-1.618-4.49-1.618a7.102 7.102 0 0 0-4.56 1.584 9.277 9.277 0 0 0-2.935 4.274v16.89h-2.76V10.35h2.645l.094 4.216a9.879 9.879 0 0 1 3.526-3.475 9.293 9.293 0 0 1 4.664-1.197c2.691 0 4.695.745 6.01 2.234 1.315 1.49 1.98 3.723 1.995 6.702v16.183h-2.761V18.805h-.001ZM40.198 5.038a1.868 1.868 0 0 1-1.394-.521 1.782 1.782 0 0 1-.51-1.292 1.81 1.81 0 0 1 .51-1.302 1.825 1.825 0 0 1 1.394-.532 1.889 1.889 0 0 1 1.404.532 1.8 1.8 0 0 1 .522 1.302 1.741 1.741 0 0 1-.522 1.292 1.884 1.884 0 0 1-1.404.52ZM23.04 35.012l-2.805-8.504h2.455l.813 2.555.649 2.598.533-2.393 5.151-18.92h2.877l-7.306 24.664H23.04ZM17.803 19.13l-1.213-3.675-.304-1.345-.302 1.367-6.332 19.535H7.286l-2.513-8.504h2.603l.792 2.828.418 2.12.556-2.232 6.033-18.875h2.366l2.798 8.78-2.536.001ZM0 10.35h2.854l2.457 8.78H2.594L0 10.35Zm41.567 24.663h-2.784V10.35h2.784v24.663ZM228.425 33.796a1.616 1.616 0 0 0-.234-.937.772.772 0 0 0-.29-.256.743.743 0 0 0-.373-.08.807.807 0 0 0-.393.077.843.843 0 0 0-.313.26 4.483 4.483 0 0 0-.52 1.21 8.656 8.656 0 0 1-.331.93h2.134c.213-.27.32-.67.32-1.204ZM229.553 35c.108-.39.161-.795.155-1.203a3.6 3.6 0 0 0-.582-2.16 1.915 1.915 0 0 0-.706-.608 1.84 1.84 0 0 0-.899-.193 1.99 1.99 0 0 0-.835.16 2.053 2.053 0 0 0-.702.496 5.16 5.16 0 0 0-1.035 2.092 4.587 4.587 0 0 1-.487 1.18.779.779 0 0 1-.196.236h-.945a.807.807 0 0 1-.167-.176 1.593 1.593 0 0 1-.251-.96 1.485 1.485 0 0 1 .3-.992 1.056 1.056 0 0 1 .842-.354v-1.684a2.203 2.203 0 0 0-1.267.38 2.47 2.47 0 0 0-.864 1.062 3.785 3.785 0 0 0-.305 1.56c-.006.394.044.786.148 1.164H217V0h4.948a3.495 3.495 0 0 0-.338 1.56c-.011.638.154 1.268.474 1.814.327.539.799.966 1.359 1.228a4.59 4.59 0 0 0 2.049.434h.39a4.49 4.49 0 0 0 2.012-.443 3.165 3.165 0 0 0 1.345-1.234 3.483 3.483 0 0 0 .471-1.811A3.472 3.472 0 0 0 229.378 0H233v35h-3.447Zm-5.457-35h3.135c.174.067.343.15.505.247.206.14.374.335.486.563.113.228.166.482.156.738.01.262-.046.522-.163.754-.117.232-.29.428-.503.568-.569.34-1.22.5-1.875.46h-.385a3.19 3.19 0 0 1-1.865-.465 1.487 1.487 0 0 1-.482-.568 1.556 1.556 0 0 1-.154-.74c-.01-.257.044-.513.157-.742a1.49 1.49 0 0 1 .487-.568c.161-.097.329-.18.501-.247Zm-2.378 30.317v-6.652h1.316v2.5h6.567v1.682h-6.567v2.47h-1.316Zm5.247-11.989h-5.247v-1.687h5.192c.379-.02.758.045 1.111.19.353.145.672.366.936.649a3.31 3.31 0 0 1 .753 2.291 3.349 3.349 0 0 1-.731 2.27 2.614 2.614 0 0 1-.915.656c-.346.148-.72.217-1.094.202h-5.252v-1.682h5.203c.204.018.409-.006.603-.072.194-.066.373-.172.526-.313.249-.291.377-.674.355-1.063 0-.946-.48-1.426-1.44-1.441Zm2.16-7.407c.318.587.483 1.25.476 1.924V15.376h-7.883v-2.514a3.929 3.929 0 0 1 .469-1.926 3.32 3.32 0 0 1 1.332-1.327 3.992 3.992 0 0 1 1.963-.476h.362a4.004 4.004 0 0 1 1.953.468 3.3 3.3 0 0 1 1.328 1.32Zm-5.954 1.11a1.872 1.872 0 0 0-.137.83v.83h5.262v-.813c.017-.284-.03-.569-.138-.83a1.821 1.821 0 0 0-.484-.678 2.744 2.744 0 0 0-1.781-.533h-.417a2.786 2.786 0 0 0-1.822.516c-.21.184-.375.416-.483.678Zm-1.453-4.114V6.235h7.883v1.682h-7.883Z" fill="#fff"/></svg></svg>