<svg width="199" height="170" viewBox="0 0 199 170" fill="none" xmlns="http://www.w3.org/2000/svg">
<g clip-path="url(#clip0_64_268)">
<path fill-rule="evenodd" clip-rule="evenodd" d="M28.5602 111.005H0L10.0764 95.7897L0 79.7621H28.5602V111.005Z" fill="url(#paint0_linear_64_268)"/>
<path fill-rule="evenodd" clip-rule="evenodd" d="M170.44 111.005H199L188.923 95.7897L199 79.7621H170.44V111.005Z" fill="url(#paint1_linear_64_268)"/>
<path d="M14.7407 101.797L33.7194 112.292L26.9851 95.2H14.7407V101.797Z" fill="#D1B685"/>
<path d="M184.075 101.797L165.096 112.292L171.83 95.2H184.075V101.797Z" fill="#A78557"/>
<g filter="url(#filter0_i_64_268)">
<path d="M176.889 42.4818V127.482L99.979 170L23.0325 127.482V42.4818L99.979 0L176.889 42.4818Z" fill="#17313B"/>
</g>
<g filter="url(#filter1_i_64_268)">
<path d="M171.73 44.8993V125.468L99.7047 165.773L27.6389 125.468V44.8993L99.7047 4.5946L171.73 44.8993Z" fill="url(#paint2_radial_64_268)"/>
<path d="M171.73 44.8993V125.468L99.7047 165.773L27.6389 125.468V44.8993L99.7047 4.5946L171.73 44.8993Z" fill="url(#paint3_radial_64_268)"/>
</g>
<path d="M171.73 44.8993V125.468L99.7047 165.773L27.6389 125.468V44.8993L99.7047 4.5946L171.73 44.8993Z" stroke="#6DCDA9" stroke-width="10" stroke-miterlimit="10"/>
<path fill-rule="evenodd" clip-rule="evenodd" d="M14.7407 101.816C14.7407 101.918 14.8232 102 14.925 102H184.075C184.177 102 184.259 101.918 184.259 101.816V70.9406C184.259 70.8391 184.177 70.7568 184.075 70.7568H14.925C14.8232 70.7568 14.7407 70.8391 14.7407 70.9406V101.816Z" fill="url(#paint4_linear_64_268)"/>
<path d="M86.7862 38.4108H83.6538V55.5027H86.7862V38.4108Z" fill="white"/>
<path d="M97.1962 50.3234C97.1962 52.9967 94.7428 53.1972 94.0371 53.1972C92.2895 53.1972 91.8527 51.6266 91.8527 50.6909V44.1082H89.3657V50.6909C89.3657 52.3283 89.8699 53.6984 90.8109 54.634C91.6509 55.4359 92.8272 55.8703 94.2051 55.8703C95.2806 55.8703 96.1544 55.5362 97.1962 54.9347V55.4026H100.053V44.1082H97.1962V50.3234Z" fill="white"/>
<path d="M105.862 40.2487H102.725V44.2454H100.974V46.4435H102.725V55.5027H105.862V46.4435H107.976V44.2454H105.862V40.2487Z" fill="white"/>
<path d="M117.18 52.2012C116.511 52.7652 115.677 53.0638 114.808 53.0307C112.804 53.0307 111.301 51.604 111.301 49.6796C111.301 47.722 112.737 46.3949 114.808 46.3949C115.677 46.3949 116.545 46.6935 117.213 47.2243L117.647 47.5893L119.584 45.7312L119.083 45.2999C117.914 44.3045 116.378 43.7405 114.775 43.7405C111.167 43.7405 108.529 46.2289 108.529 49.6796C108.529 53.1302 111.234 55.685 114.775 55.685C116.378 55.7182 117.914 55.1542 119.117 54.1255L119.584 53.6942L117.614 51.8362L117.18 52.2012Z" fill="white"/>
<path d="M129.97 45.2742C129.132 44.4745 127.926 44.0413 126.552 44.0413C125.48 44.0413 124.341 44.3745 123.537 44.9742V38.4108H120.69V55.5027H123.537V49.5721C123.537 46.9067 125.815 46.7068 126.519 46.7068C128.228 46.7068 128.529 48.2728 128.529 49.2057V55.5027H131.377V49.2057C131.343 47.5399 130.941 46.1738 129.97 45.2742Z" fill="white"/>
<path d="M114.702 51.8271C115.872 51.8271 116.82 50.9219 116.82 49.8054C116.82 48.6889 115.872 47.7838 114.702 47.7838C113.531 47.7838 112.583 48.6889 112.583 49.8054C112.583 50.9219 113.531 51.8271 114.702 51.8271Z" fill="#FF3D2E"/>
<path d="M80.2002 51.5348C79.0936 52.602 77.5843 53.2357 76.008 53.2023C72.7545 53.2023 70.4068 50.7679 70.4068 47.4329C70.4068 44.098 72.7545 41.6301 76.008 41.6301C77.5843 41.6301 79.0936 42.2304 80.1667 43.2976L80.6028 43.7312L82.548 41.8636L82.1121 41.43C80.5022 39.8292 78.2885 38.9622 75.9744 38.9622C71.2117 38.9622 67.623 42.5972 67.623 47.4329C67.623 52.2685 71.2117 55.8703 75.9744 55.8703C78.2885 55.8703 80.5022 55.0032 82.1121 53.4024L82.548 52.9689L80.6364 51.068L80.2002 51.5348Z" fill="white"/>
<path d="M87.6714 123.87V113.45H91.7085V114.492H89.1289V117.965H91.1281V118.994H89.1289V123.87H87.6714ZM93.2052 123.87L95.4237 113.45H96.8296L99.061 123.87H97.6809L97.2037 121.246H95.0755L94.5724 123.87H93.2052ZM95.269 120.204H97.0102L96.1331 115.508L95.269 120.204ZM101.411 123.87V113.45H102.868V122.828H105.538V123.87H101.411ZM107.827 123.87V113.45H109.285V122.828H111.955V123.87H107.827Z" fill="white"/>
<path d="M87.6177 144.638V143.8L89.8951 140.26C90.0646 139.995 90.2194 139.749 90.3595 139.521C90.5069 139.293 90.6248 139.055 90.7132 138.805C90.809 138.547 90.857 138.253 90.857 137.922C90.857 137.511 90.7906 137.187 90.658 136.952C90.5253 136.717 90.2931 136.599 89.9615 136.599C89.6814 136.599 89.464 136.676 89.3092 136.831C89.1544 136.985 89.0475 137.187 88.9886 137.437C88.9296 137.687 88.9001 137.955 88.9001 138.242V138.54H87.7172V138.231C87.7172 137.695 87.7872 137.235 87.9272 136.853C88.0746 136.463 88.3068 136.162 88.6237 135.949C88.948 135.735 89.3755 135.629 89.9062 135.629C90.6285 135.629 91.1665 135.835 91.5203 136.246C91.8741 136.651 92.051 137.213 92.051 137.933C92.051 138.316 92.003 138.65 91.9072 138.937C91.8188 139.224 91.7009 139.492 91.5535 139.742C91.406 139.992 91.2439 140.249 91.067 140.514L89.0107 143.645H91.8409V144.638H87.6177ZM96.4127 144.737C95.9042 144.737 95.4841 144.623 95.1524 144.395C94.8281 144.167 94.5849 143.855 94.4227 143.458C94.268 143.061 94.1906 142.609 94.1906 142.102V138.253C94.1906 137.731 94.268 137.275 94.4227 136.886C94.5775 136.489 94.817 136.18 95.1413 135.96C95.473 135.739 95.8968 135.629 96.4127 135.629C96.9287 135.629 97.3488 135.739 97.6731 135.96C97.9974 136.18 98.2369 136.489 98.3917 136.886C98.5465 137.275 98.6238 137.731 98.6238 138.253V142.102C98.6238 142.616 98.5428 143.072 98.3806 143.469C98.2258 143.866 97.9863 144.178 97.662 144.406C97.3377 144.627 96.9213 144.737 96.4127 144.737ZM96.4127 143.767C96.6928 143.767 96.9029 143.686 97.0429 143.524C97.1903 143.362 97.2898 143.157 97.3414 142.907C97.4004 142.649 97.4299 142.385 97.4299 142.113V138.242C97.4299 137.955 97.404 137.687 97.3525 137.437C97.3009 137.18 97.2014 136.974 97.054 136.82C96.9139 136.665 96.7002 136.588 96.4127 136.588C96.1253 136.588 95.9079 136.665 95.7605 136.82C95.6131 136.974 95.5136 137.18 95.462 137.437C95.4104 137.687 95.3846 137.955 95.3846 138.242V142.113C95.3846 142.385 95.4104 142.649 95.462 142.907C95.5209 143.157 95.6241 143.362 95.7715 143.524C95.9263 143.686 96.14 143.767 96.4127 143.767ZM100.819 144.638V143.8L103.097 140.26C103.266 139.995 103.421 139.749 103.561 139.521C103.709 139.293 103.827 139.055 103.915 138.805C104.011 138.547 104.059 138.253 104.059 137.922C104.059 137.511 103.992 137.187 103.86 136.952C103.727 136.717 103.495 136.599 103.163 136.599C102.883 136.599 102.666 136.676 102.511 136.831C102.356 136.985 102.249 137.187 102.19 137.437C102.131 137.687 102.102 137.955 102.102 138.242V138.54H100.919V138.231C100.919 137.695 100.989 137.235 101.129 136.853C101.276 136.463 101.509 136.162 101.826 135.949C102.15 135.735 102.577 135.629 103.108 135.629C103.83 135.629 104.368 135.835 104.722 136.246C105.076 136.651 105.253 137.213 105.253 137.933C105.253 138.316 105.205 138.65 105.109 138.937C105.021 139.224 104.903 139.492 104.755 139.742C104.608 139.992 104.446 140.249 104.269 140.514L102.212 143.645H105.043V144.638H100.819ZM109.383 144.737C108.896 144.737 108.491 144.645 108.166 144.461C107.842 144.278 107.599 144.013 107.437 143.667C107.275 143.322 107.194 142.914 107.194 142.443V142.146H108.365C108.365 142.175 108.365 142.208 108.365 142.245C108.365 142.274 108.365 142.307 108.365 142.344C108.373 142.609 108.402 142.848 108.454 143.061C108.513 143.274 108.612 143.443 108.752 143.568C108.9 143.693 109.11 143.756 109.383 143.756C109.67 143.756 109.887 143.69 110.035 143.557C110.182 143.418 110.282 143.223 110.333 142.973C110.385 142.723 110.411 142.436 110.411 142.113C110.411 141.642 110.322 141.26 110.145 140.966C109.976 140.664 109.674 140.499 109.239 140.47C109.217 140.462 109.187 140.459 109.15 140.459C109.121 140.459 109.095 140.459 109.073 140.459V139.279C109.095 139.279 109.121 139.279 109.15 139.279C109.18 139.279 109.206 139.279 109.228 139.279C109.648 139.264 109.95 139.154 110.134 138.948C110.319 138.742 110.411 138.4 110.411 137.922C110.411 137.518 110.341 137.195 110.201 136.952C110.068 136.709 109.799 136.588 109.394 136.588C108.988 136.588 108.719 136.724 108.587 136.996C108.454 137.261 108.38 137.603 108.365 138.022C108.365 138.051 108.365 138.084 108.365 138.121C108.365 138.15 108.365 138.18 108.365 138.209H107.194V137.911C107.194 137.434 107.275 137.026 107.437 136.687C107.599 136.349 107.842 136.088 108.166 135.904C108.498 135.721 108.907 135.629 109.394 135.629C109.887 135.629 110.296 135.721 110.621 135.904C110.945 136.088 111.188 136.353 111.35 136.698C111.513 137.037 111.594 137.445 111.594 137.922C111.594 138.459 111.476 138.889 111.24 139.213C111.011 139.536 110.702 139.757 110.311 139.874C110.584 139.955 110.812 140.095 110.997 140.293C111.188 140.492 111.336 140.745 111.439 141.054C111.542 141.355 111.594 141.708 111.594 142.113C111.594 142.642 111.52 143.105 111.373 143.502C111.225 143.892 110.989 144.197 110.665 144.417C110.341 144.631 109.913 144.737 109.383 144.737Z" fill="white"/>
<path d="M58.3928 95.0386C57.2777 95.0386 56.4006 94.8199 55.7616 94.3825C55.1351 93.9451 54.6965 93.3515 54.446 92.6017C54.1954 91.8393 54.0701 90.9645 54.0701 89.9772V84.5596C54.0701 83.5224 54.1954 82.6226 54.446 81.8602C54.6965 81.0979 55.1351 80.5105 55.7616 80.0981C56.4006 79.6857 57.2777 79.4795 58.3928 79.4795C59.4453 79.4795 60.266 79.6607 60.8549 80.0231C61.4563 80.3731 61.8823 80.8792 62.1329 81.5415C62.3835 82.2039 62.5088 82.9725 62.5088 83.8473V85.122H59.84V83.8098C59.84 83.3849 59.8149 82.9975 59.7648 82.6476C59.7272 82.2976 59.6082 82.0227 59.4077 81.8227C59.2197 81.6103 58.8877 81.5041 58.4116 81.5041C57.9355 81.5041 57.5846 81.6165 57.3591 81.8415C57.1461 82.0539 57.0083 82.3476 56.9456 82.7225C56.883 83.085 56.8516 83.4974 56.8516 83.9598V90.5583C56.8516 91.1082 56.8955 91.5644 56.9832 91.9268C57.0709 92.2767 57.2275 92.5454 57.4531 92.7329C57.6911 92.9078 58.0106 92.9953 58.4116 92.9953C58.8752 92.9953 59.201 92.8891 59.3889 92.6766C59.5894 92.4517 59.7147 92.158 59.7648 91.7956C59.8149 91.4332 59.84 91.027 59.84 90.5771V89.2086H62.5088V90.4271C62.5088 91.3269 62.3897 92.1268 62.1517 92.8266C61.9136 93.514 61.4939 94.0576 60.8924 94.4575C60.3036 94.8449 59.4703 95.0386 58.3928 95.0386ZM66.3624 94.8324V79.6482H69.1252V86.0031H72.2262V79.6482H75.0078V94.8324H72.2262V87.9714H69.1252V94.8324H66.3624ZM78.4461 94.8324L81.4908 79.6482H84.4603L87.505 94.8324H84.9302L84.3288 91.3269H81.6787L81.0585 94.8324H78.4461ZM81.9607 89.5648H84.028L82.9943 83.1912L81.9607 89.5648ZM90.8779 94.8324L91.141 79.6482H94.0165L96.1779 90.1647L98.4332 79.6482H101.215L101.497 94.8324H99.4294L99.2038 84.2785L97.0425 94.8324H95.3698L93.1708 84.241L92.9641 94.8324H90.8779ZM105.624 94.8324V79.6482H110.097C111.012 79.6482 111.751 79.8169 112.315 80.1543C112.892 80.4918 113.311 80.9854 113.574 81.6353C113.85 82.2726 113.988 83.0475 113.988 83.9598C113.988 84.9471 113.819 85.7469 113.48 86.3593C113.142 86.9591 112.666 87.3965 112.052 87.6715C111.451 87.9464 110.736 88.0839 109.909 88.0839H108.406V94.8324H105.624ZM108.406 86.1343H109.458C109.96 86.1343 110.348 86.0656 110.624 85.9281C110.912 85.7781 111.106 85.5469 111.206 85.2345C111.319 84.9096 111.375 84.4784 111.375 83.941C111.375 83.3911 111.332 82.9475 111.244 82.6101C111.169 82.2601 110.993 82.0039 110.718 81.8415C110.455 81.679 110.035 81.5978 109.458 81.5978H108.406V86.1343ZM117.49 94.8324V79.6482H120.234V94.8324H117.49ZM128.605 95.0386C127.527 95.0386 126.669 94.8387 126.03 94.4388C125.391 94.0388 124.934 93.464 124.658 92.7141C124.382 91.9643 124.245 91.077 124.245 90.0522V84.3722C124.245 83.3474 124.382 82.4726 124.658 81.7477C124.934 81.0104 125.391 80.448 126.03 80.0606C126.669 79.6732 127.527 79.4795 128.605 79.4795C129.708 79.4795 130.572 79.6732 131.199 80.0606C131.838 80.448 132.295 81.0104 132.571 81.7477C132.859 82.4726 133.003 83.3474 133.003 84.3722V90.071C133.003 91.0832 132.859 91.9643 132.571 92.7141C132.295 93.4515 131.838 94.0263 131.199 94.4388C130.572 94.8387 129.708 95.0386 128.605 95.0386ZM128.605 92.9953C129.069 92.9953 129.407 92.8953 129.62 92.6954C129.845 92.4954 129.996 92.2205 130.071 91.8706C130.146 91.5206 130.184 91.1395 130.184 90.7271V83.7348C130.184 83.3099 130.146 82.9287 130.071 82.5913C129.996 82.2539 129.845 81.9914 129.62 81.804C129.407 81.604 129.069 81.5041 128.605 81.5041C128.166 81.5041 127.834 81.604 127.609 81.804C127.383 81.9914 127.233 82.2539 127.158 82.5913C127.083 82.9287 127.045 83.3099 127.045 83.7348V90.7271C127.045 91.1395 127.076 91.5206 127.139 91.8706C127.214 92.2205 127.365 92.4954 127.59 92.6954C127.816 92.8953 128.154 92.9953 128.605 92.9953ZM136.94 94.8324V79.6482H138.876L142.578 88.3088V79.6482H144.871V94.8324H143.029L139.308 85.7594V94.8324H136.94Z" fill="white"/>
</g>
<defs>
<filter id="filter0_i_64_268" x="23.0325" y="0" width="153.856" height="174" filterUnits="userSpaceOnUse" color-interpolation-filters="sRGB">
<feFlood flood-opacity="0" result="BackgroundImageFix"/>
<feBlend mode="normal" in="SourceGraphic" in2="BackgroundImageFix" result="shape"/>
<feColorMatrix in="SourceAlpha" type="matrix" values="0 0 0 0 0 0 0 0 0 0 0 0 0 0 0 0 0 0 127 0" result="hardAlpha"/>
<feOffset dy="4"/>
<feGaussianBlur stdDeviation="2"/>
<feComposite in2="hardAlpha" operator="arithmetic" k2="-1" k3="1"/>
<feColorMatrix type="matrix" values="0 0 0 0 0 0 0 0 0 0 0 0 0 0 0 0 0 0 0.1 0"/>
<feBlend mode="normal" in2="shape" result="effect1_innerShadow_64_268"/>
</filter>
<filter id="filter1_i_64_268" x="27.6389" y="4.5946" width="144.091" height="165.178" filterUnits="userSpaceOnUse" color-interpolation-filters="sRGB">
<feFlood flood-opacity="0" result="BackgroundImageFix"/>
<feBlend mode="normal" in="SourceGraphic" in2="BackgroundImageFix" result="shape"/>
<feColorMatrix in="SourceAlpha" type="matrix" values="0 0 0 0 0 0 0 0 0 0 0 0 0 0 0 0 0 0 127 0" result="hardAlpha"/>
<feOffset dy="4"/>
<feGaussianBlur stdDeviation="2"/>
<feComposite in2="hardAlpha" operator="arithmetic" k2="-1" k3="1"/>
<feColorMatrix type="matrix" values="0 0 0 0 0 0 0 0 0 0 0 0 0 0 0 0 0 0 0.07 0"/>
<feBlend mode="normal" in2="shape" result="effect1_innerShadow_64_268"/>
</filter>
<linearGradient id="paint0_linear_64_268" x1="1.19001" y1="37.688" x2="57.6124" y2="86.5531" gradientUnits="userSpaceOnUse">
<stop stop-color="#D2AE73"/>
<stop offset="0.1231" stop-color="#BD9155"/>
<stop offset="0.3174" stop-color="#F9E2B2"/>
<stop offset="0.9689" stop-color="#BD9155"/>
</linearGradient>
<linearGradient id="paint1_linear_64_268" x1="197.81" y1="37.688" x2="141.388" y2="86.5531" gradientUnits="userSpaceOnUse">
<stop stop-color="#D2AE73"/>
<stop offset="0.1231" stop-color="#BD9155"/>
<stop offset="0.3174" stop-color="#F9E2B2"/>
<stop offset="0.9689" stop-color="#BD9155"/>
</linearGradient>
<radialGradient id="paint2_radial_64_268" cx="0" cy="0" r="1" gradientUnits="userSpaceOnUse" gradientTransform="translate(168.594 4.59461) rotate(131.17) scale(214.119 430.591)">
<stop stop-color="#17313B"/>
<stop offset="1" stop-color="#2E5272"/>
</radialGradient>
<radialGradient id="paint3_radial_64_268" cx="0" cy="0" r="1" gradientUnits="userSpaceOnUse" gradientTransform="translate(168.594 4.59461) rotate(131.17) scale(214.119 430.591)">
<stop stop-color="#17313B"/>
<stop offset="1" stop-color="#2E5272"/>
</radialGradient>
<linearGradient id="paint4_linear_64_268" x1="21.8039" y1="28.6826" x2="43.1747" y2="138.539" gradientUnits="userSpaceOnUse">
<stop stop-color="#D2AE73"/>
<stop offset="0.1231" stop-color="#BD9155"/>
<stop offset="0.3174" stop-color="#F9E2B2"/>
<stop offset="0.9689" stop-color="#BD9155"/>
</linearGradient>
<clipPath id="clip0_64_268">
<rect width="199" height="170" fill="white"/>
</clipPath>
</defs>
</svg>
