<svg width="198" height="170" viewBox="0 0 198 170" fill="none" xmlns="http://www.w3.org/2000/svg">
<g clip-path="url(#clip0_64_290)">
<path fill-rule="evenodd" clip-rule="evenodd" d="M28.4167 110.949H0L10.0257 95.7665L0 79.7734H28.4167V110.949Z" fill="#6DCDA9"/>
<path fill-rule="evenodd" clip-rule="evenodd" d="M169.583 110.949H198L187.973 95.7665L198 79.7734H169.583V110.949Z" fill="#6DCDA9"/>
<path d="M14.6667 101.761L33.5501 112.233L26.8496 95.178H14.6667V101.761Z" fill="#5EAF91"/>
<path d="M183.15 101.761L164.267 112.233L170.967 95.178H183.15V101.761Z" fill="#5EAF91"/>
<g filter="url(#filter0_i_64_290)">
<path d="M176 42.5735V127.39L99.4766 169.817L22.9167 127.39V42.5735L99.4766 0.18335L176 42.5735Z" fill="#17313B"/>
</g>
<path d="M176 42.5735V127.39L99.4766 169.817L22.9167 127.39V42.5735L99.4766 0.18335L176 42.5735Z" stroke="#6DCDA9" stroke-miterlimit="10"/>
<g filter="url(#filter1_i_64_290)">
<path d="M168.483 46.1774V123.822L99.2946 162.664L30.0667 123.822V46.1774L99.2946 7.33545L168.483 46.1774Z" fill="url(#paint0_radial_64_290)"/>
<path d="M168.483 46.1774V123.822L99.2946 162.664L30.0667 123.822V46.1774L99.2946 7.33545L168.483 46.1774Z" fill="url(#paint1_radial_64_290)"/>
</g>
<path d="M169.4 46.1774V45.6407L168.932 45.3779L99.7431 6.53585L99.2947 6.28406L98.8461 6.53574L29.6181 45.3777L29.1499 45.6405V46.1774V123.823V124.359L29.6181 124.622L98.8461 163.464L99.2947 163.716L99.7431 163.464L168.932 124.622L169.4 124.359V123.823V46.1774Z" stroke="url(#paint2_linear_64_290)" stroke-width="10" stroke-miterlimit="10"/>
<path fill-rule="evenodd" clip-rule="evenodd" d="M14.6667 101.78C14.6667 101.881 14.7488 101.963 14.8501 101.963H183.15C183.251 101.963 183.333 101.881 183.333 101.78V70.9709C183.333 70.8696 183.251 70.7875 183.15 70.7875H14.8501C14.7488 70.7875 14.6667 70.8696 14.6667 70.9709V101.78Z" fill="#6DCDA9"/>
<path d="M86.3501 36.6775H83.2334V53.7325H86.3501V36.6775Z" fill="white"/>
<path d="M96.7079 48.5642C96.7079 51.2318 94.2668 51.4318 93.5646 51.4318C91.8259 51.4318 91.3912 49.8646 91.3912 48.931V42.3624H88.9167V48.931C88.9167 50.5648 89.4183 51.9319 90.3546 52.8656C91.1904 53.6657 92.3608 54.0992 93.7318 54.0992C94.8019 54.0992 95.6713 53.7658 96.7079 53.1656V53.6325H99.5501V42.3624H96.7079V48.5642Z" fill="white"/>
<path d="M105.33 38.5114H102.208V42.4995H100.467V44.6928H102.208V53.7325H105.33V44.6928H107.433V42.4995H105.33V38.5114Z" fill="white"/>
<path d="M116.591 50.4381C115.926 51.001 115.095 51.299 114.231 51.266C112.237 51.266 110.742 49.8423 110.742 47.9221C110.742 45.9686 112.171 44.6444 114.231 44.6444C115.095 44.6444 115.959 44.9424 116.624 45.472L117.056 45.8362L118.983 43.9822L118.485 43.5518C117.322 42.5585 115.793 41.9957 114.198 41.9957C110.609 41.9957 107.983 44.4788 107.983 47.9221C107.983 51.3652 110.675 53.9144 114.198 53.9144C115.793 53.9476 117.322 53.3848 118.518 52.3584L118.983 51.928L117.023 50.0739L116.591 50.4381Z" fill="white"/>
<path d="M129.317 43.5261C128.483 42.7282 127.283 42.2959 125.917 42.2959C124.85 42.2959 123.717 42.6284 122.917 43.2268V36.6775H120.083V53.7325H122.917V47.8148C122.917 45.1551 125.183 44.9556 125.883 44.9556C127.583 44.9556 127.883 46.5182 127.883 47.4491V53.7325H130.717V47.4491C130.683 45.7869 130.283 44.4238 129.317 43.5261Z" fill="white"/>
<path d="M114.125 50.0647C115.289 50.0647 116.233 49.1615 116.233 48.0474C116.233 46.9333 115.289 46.0302 114.125 46.0302C112.961 46.0302 112.017 46.9333 112.017 48.0474C112.017 49.1615 112.961 50.0647 114.125 50.0647Z" fill="#FF3D2E"/>
<path d="M79.7974 49.7732C78.6963 50.8381 77.1946 51.4704 75.6262 51.4371C72.3891 51.4371 70.0532 49.0079 70.0532 45.6802C70.0532 42.3524 72.3891 39.8899 75.6262 39.8899C77.1946 39.8899 78.6963 40.4888 79.764 41.5538L80.198 41.9864L82.1334 40.1228L81.6997 39.6902C80.0979 38.0929 77.8953 37.2277 75.5928 37.2277C70.854 37.2277 67.2834 40.8549 67.2834 45.6802C67.2834 50.5053 70.854 54.0993 75.5928 54.0993C77.8953 54.0993 80.0979 53.2341 81.6997 51.6368L82.1334 51.2042L80.2314 49.3074L79.7974 49.7732Z" fill="white"/>
<path d="M87.231 123.603V113.205H91.2478V114.245H88.6811V117.711H90.6703V118.738H88.6811V123.603H87.231ZM92.737 123.603L94.9443 113.205H96.3432L98.5633 123.603H97.1902L96.7153 120.984H94.5978L94.0973 123.603H92.737ZM94.7903 119.944H96.5228L95.6502 115.259L94.7903 119.944ZM100.901 123.603V113.205H102.352V122.563H105.008V123.603H100.901ZM107.285 123.603V113.205H108.736V122.563H111.392V123.603H107.285Z" fill="white"/>
<path d="M89.3464 143.225V142.529L91.2348 139.585C91.3754 139.365 91.5037 139.16 91.6198 138.971C91.7421 138.781 91.8398 138.583 91.9131 138.375C91.9925 138.161 92.0323 137.916 92.0323 137.641C92.0323 137.299 91.9773 137.03 91.8673 136.834C91.7573 136.639 91.5648 136.541 91.2898 136.541C91.0575 136.541 90.8773 136.605 90.7489 136.734C90.6206 136.862 90.5321 137.03 90.4831 137.238C90.4342 137.446 90.4098 137.669 90.4098 137.907V138.155H89.4289V137.898C89.4289 137.452 89.4871 137.07 89.6031 136.752C89.7254 136.428 89.9179 136.177 90.1806 136C90.4496 135.823 90.8039 135.734 91.2439 135.734C91.8429 135.734 92.2889 135.905 92.5823 136.248C92.8756 136.584 93.0223 137.051 93.0223 137.65C93.0223 137.968 92.9825 138.246 92.9031 138.485C92.8298 138.723 92.7321 138.946 92.6098 139.154C92.4875 139.362 92.3531 139.576 92.2064 139.796L90.5014 142.4H92.8481V143.225H89.3464ZM96.6389 143.308C96.2172 143.308 95.8689 143.213 95.5939 143.024C95.3249 142.834 95.1233 142.574 94.9889 142.244C94.8605 141.914 94.7964 141.538 94.7964 141.116V137.916C94.7964 137.482 94.8605 137.103 94.9889 136.779C95.1172 136.449 95.3158 136.193 95.5847 136.009C95.8597 135.826 96.2112 135.734 96.6389 135.734C97.0666 135.734 97.4149 135.826 97.6839 136.009C97.9528 136.193 98.1514 136.449 98.2797 136.779C98.408 137.103 98.4722 137.482 98.4722 137.916V141.116C98.4722 141.544 98.4049 141.923 98.2706 142.253C98.1422 142.584 97.9437 142.843 97.6747 143.033C97.4058 143.216 97.0605 143.308 96.6389 143.308ZM96.6389 142.501C96.8712 142.501 97.0453 142.434 97.1614 142.299C97.2837 142.165 97.3662 141.994 97.4089 141.786C97.4578 141.572 97.4822 141.352 97.4822 141.126V137.907C97.4822 137.669 97.4608 137.446 97.418 137.238C97.3753 137.024 97.2928 136.853 97.1706 136.724C97.0545 136.596 96.8772 136.532 96.6389 136.532C96.4005 136.532 96.2203 136.596 96.0981 136.724C95.9758 136.853 95.8933 137.024 95.8506 137.238C95.8078 137.446 95.7864 137.669 95.7864 137.907V141.126C95.7864 141.352 95.8078 141.572 95.8506 141.786C95.8995 141.994 95.9849 142.165 96.1072 142.299C96.2356 142.434 96.4128 142.501 96.6389 142.501ZM100.293 143.225V142.529L102.181 139.585C102.322 139.365 102.45 139.16 102.566 138.971C102.688 138.781 102.786 138.583 102.859 138.375C102.939 138.161 102.979 137.916 102.979 137.641C102.979 137.299 102.924 137.03 102.814 136.834C102.704 136.639 102.511 136.541 102.236 136.541C102.004 136.541 101.824 136.605 101.695 136.734C101.567 136.862 101.478 137.03 101.429 137.238C101.38 137.446 101.356 137.669 101.356 137.907V138.155H100.375V137.898C100.375 137.452 100.433 137.07 100.549 136.752C100.672 136.428 100.864 136.177 101.127 136C101.396 135.823 101.75 135.734 102.19 135.734C102.789 135.734 103.235 135.905 103.529 136.248C103.822 136.584 103.969 137.051 103.969 137.65C103.969 137.968 103.929 138.246 103.849 138.485C103.776 138.723 103.678 138.946 103.556 139.154C103.434 139.362 103.299 139.576 103.153 139.796L101.448 142.4H103.794V143.225H100.293ZM107.393 143.308C106.989 143.308 106.653 143.231 106.384 143.079C106.115 142.926 105.914 142.706 105.779 142.419C105.645 142.131 105.578 141.792 105.578 141.401V141.153H106.549C106.549 141.178 106.549 141.205 106.549 141.236C106.549 141.26 106.549 141.288 106.549 141.318C106.555 141.538 106.58 141.737 106.623 141.914C106.672 142.092 106.754 142.232 106.87 142.336C106.992 142.44 107.167 142.492 107.393 142.492C107.631 142.492 107.811 142.437 107.934 142.327C108.056 142.211 108.138 142.049 108.181 141.841C108.224 141.633 108.245 141.395 108.245 141.126C108.245 140.734 108.172 140.416 108.025 140.172C107.885 139.921 107.634 139.784 107.274 139.759C107.255 139.753 107.231 139.75 107.2 139.75C107.176 139.75 107.154 139.75 107.136 139.75V138.769C107.154 138.769 107.176 138.769 107.2 138.769C107.225 138.769 107.246 138.769 107.264 138.769C107.613 138.757 107.863 138.665 108.016 138.494C108.169 138.323 108.245 138.039 108.245 137.641C108.245 137.305 108.187 137.036 108.071 136.834C107.961 136.633 107.738 136.532 107.402 136.532C107.066 136.532 106.843 136.645 106.733 136.871C106.623 137.091 106.562 137.375 106.549 137.724C106.549 137.748 106.549 137.776 106.549 137.806C106.549 137.831 106.549 137.855 106.549 137.88H105.578V137.632C105.578 137.235 105.645 136.895 105.779 136.614C105.914 136.333 106.115 136.116 106.384 135.963C106.659 135.811 106.999 135.734 107.402 135.734C107.811 135.734 108.15 135.811 108.419 135.963C108.688 136.116 108.89 136.336 109.024 136.623C109.159 136.905 109.226 137.244 109.226 137.641C109.226 138.087 109.128 138.445 108.933 138.714C108.743 138.983 108.487 139.167 108.163 139.264C108.389 139.332 108.578 139.448 108.731 139.613C108.89 139.778 109.012 139.989 109.098 140.245C109.183 140.496 109.226 140.79 109.226 141.126C109.226 141.566 109.165 141.951 109.043 142.281C108.92 142.605 108.725 142.859 108.456 143.042C108.187 143.219 107.833 143.308 107.393 143.308Z" fill="white"/>
<path d="M70.8188 95.017C69.8215 95.017 69.0299 94.805 68.4439 94.381C67.858 93.957 67.4341 93.3584 67.1723 92.5852C66.923 91.7996 66.7983 90.8768 66.7983 89.8168V84.7289C66.7983 83.644 66.923 82.7087 67.1723 81.9231C67.4217 81.1375 67.858 80.5389 68.4813 80.1274C69.1171 79.7034 69.9898 79.4914 71.0993 79.4914C72.1341 79.4914 72.9569 79.666 73.5677 80.0151C74.1786 80.3643 74.6149 80.8694 74.8767 81.5303C75.151 82.1787 75.2881 82.9706 75.2881 83.9059V84.6915H72.6514V83.8311C72.6514 83.3447 72.614 82.927 72.5392 82.5778C72.4769 82.2286 72.3398 81.9668 72.1278 81.7922C71.9284 81.6051 71.598 81.5116 71.1367 81.5116C70.6505 81.5116 70.2952 81.6301 70.0708 81.867C69.8589 82.1039 69.7218 82.4157 69.6594 82.8023C69.6096 83.1888 69.5846 83.6128 69.5846 84.0742V90.4154C69.5846 90.9392 69.6283 91.3943 69.7155 91.7809C69.8028 92.1675 69.9649 92.4668 70.2017 92.6788C70.4386 92.8783 70.7752 92.9781 71.2115 92.9781C71.6603 92.9781 72.0032 92.8658 72.24 92.6414C72.4769 92.4169 72.639 92.1051 72.7262 91.7061C72.826 91.307 72.8758 90.8332 72.8758 90.2845V88.8628H71.2489V87.1232H75.3629V94.8112H73.5864L73.3807 93.3148C73.1813 93.8136 72.8758 94.2251 72.4644 94.5493C72.0655 94.8611 71.517 95.017 70.8188 95.017ZM79.3385 94.8112V79.6597H82.1061V92.9032H85.7713V94.8112H79.3385ZM93.0108 95.017C91.9387 95.017 91.0847 94.8174 90.4489 94.4184C89.8131 94.0193 89.3581 93.4457 89.0838 92.6975C88.8095 91.9493 88.6724 91.0639 88.6724 90.0413V84.3735C88.6724 83.351 88.8095 82.478 89.0838 81.7548C89.3581 81.019 89.8131 80.4578 90.4489 80.0713C91.0847 79.6847 91.9387 79.4914 93.0108 79.4914C94.1079 79.4914 94.9681 79.6847 95.5914 80.0713C96.2272 80.4578 96.6822 81.019 96.9565 81.7548C97.2432 82.478 97.3866 83.351 97.3866 84.3735V90.06C97.3866 91.0701 97.2432 91.9493 96.9565 92.6975C96.6822 93.4332 96.2272 94.0069 95.5914 94.4184C94.9681 94.8174 94.1079 95.017 93.0108 95.017ZM93.0108 92.9781C93.4721 92.9781 93.8087 92.8783 94.0206 92.6788C94.245 92.4792 94.3946 92.2049 94.4694 91.8557C94.5442 91.5066 94.5816 91.1262 94.5816 90.7147V83.7375C94.5816 83.3135 94.5442 82.9332 94.4694 82.5965C94.3946 82.2598 94.245 81.9979 94.0206 81.8109C93.8087 81.6113 93.4721 81.5116 93.0108 81.5116C92.5745 81.5116 92.2441 81.6113 92.0197 81.8109C91.7953 81.9979 91.6457 82.2598 91.5709 82.5965C91.4961 82.9332 91.4587 83.3135 91.4587 83.7375V90.7147C91.4587 91.1262 91.4899 91.5066 91.5522 91.8557C91.627 92.2049 91.7766 92.4792 92.001 92.6788C92.2254 92.8783 92.562 92.9781 93.0108 92.9781ZM101.304 94.8112V79.6597H105.025C105.698 79.6597 106.303 79.7221 106.839 79.8468C107.387 79.9715 107.855 80.1835 108.241 80.4828C108.64 80.7696 108.946 81.1624 109.158 81.6612C109.37 82.16 109.476 82.7898 109.476 83.5505C109.476 84.1615 109.388 84.6853 109.214 85.1217C109.052 85.5582 108.809 85.9074 108.484 86.1693C108.16 86.4187 107.755 86.587 107.269 86.6743C107.867 86.7741 108.36 86.9861 108.746 87.3103C109.145 87.622 109.438 88.0336 109.625 88.5449C109.825 89.0561 109.924 89.6734 109.924 90.3967C109.924 91.12 109.831 91.7622 109.644 92.3234C109.469 92.8721 109.201 93.3335 108.84 93.7076C108.491 94.0692 108.048 94.3436 107.512 94.5306C106.988 94.7177 106.371 94.8112 105.661 94.8112H101.304ZM104.071 92.8658H105.118C105.954 92.8658 106.521 92.6663 106.82 92.2672C107.119 91.8557 107.269 91.226 107.269 90.378C107.269 89.7669 107.194 89.2744 107.045 88.9003C106.907 88.5137 106.671 88.2269 106.334 88.0398C106.01 87.8527 105.574 87.7592 105.025 87.7592H104.071V92.8658ZM104.071 85.8513H105.006C105.555 85.8513 105.979 85.7702 106.278 85.6081C106.577 85.446 106.783 85.1966 106.895 84.8599C107.02 84.5232 107.082 84.0992 107.082 83.5879C107.082 83.0517 106.988 82.6402 106.801 82.3533C106.627 82.054 106.359 81.8545 105.997 81.7548C105.636 81.6425 105.175 81.5864 104.614 81.5864H104.071V85.8513ZM112.798 94.8112L115.827 79.6597H118.782L121.811 94.8112H119.249L118.651 91.3133H116.014L115.397 94.8112H112.798ZM116.295 89.555H118.352L117.323 83.1951L116.295 89.555ZM125.205 94.8112V79.6597H127.972V92.9032H131.637V94.8112H125.205Z" fill="white"/>
</g>
<defs>
<filter id="filter0_i_64_290" x="22.9167" y="0.18335" width="153.083" height="173.633" filterUnits="userSpaceOnUse" color-interpolation-filters="sRGB">
<feFlood flood-opacity="0" result="BackgroundImageFix"/>
<feBlend mode="normal" in="SourceGraphic" in2="BackgroundImageFix" result="shape"/>
<feColorMatrix in="SourceAlpha" type="matrix" values="0 0 0 0 0 0 0 0 0 0 0 0 0 0 0 0 0 0 127 0" result="hardAlpha"/>
<feOffset dy="4"/>
<feGaussianBlur stdDeviation="2"/>
<feComposite in2="hardAlpha" operator="arithmetic" k2="-1" k3="1"/>
<feColorMatrix type="matrix" values="0 0 0 0 0 0 0 0 0 0 0 0 0 0 0 0 0 0 0.1 0"/>
<feBlend mode="normal" in2="shape" result="effect1_innerShadow_64_290"/>
</filter>
<filter id="filter1_i_64_290" x="30.0667" y="7.33545" width="138.417" height="159.329" filterUnits="userSpaceOnUse" color-interpolation-filters="sRGB">
<feFlood flood-opacity="0" result="BackgroundImageFix"/>
<feBlend mode="normal" in="SourceGraphic" in2="BackgroundImageFix" result="shape"/>
<feColorMatrix in="SourceAlpha" type="matrix" values="0 0 0 0 0 0 0 0 0 0 0 0 0 0 0 0 0 0 127 0" result="hardAlpha"/>
<feOffset dy="4"/>
<feGaussianBlur stdDeviation="2"/>
<feComposite in2="hardAlpha" operator="arithmetic" k2="-1" k3="1"/>
<feColorMatrix type="matrix" values="0 0 0 0 0 0 0 0 0 0 0 0 0 0 0 0 0 0 0.07 0"/>
<feBlend mode="normal" in2="shape" result="effect1_innerShadow_64_290"/>
</filter>
<radialGradient id="paint0_radial_64_290" cx="0" cy="0" r="1" gradientUnits="userSpaceOnUse" gradientTransform="translate(165.471 7.33543) rotate(131.08) scale(206.063 414.21)">
<stop stop-color="#17313B"/>
<stop offset="1" stop-color="#2E5272"/>
</radialGradient>
<radialGradient id="paint1_radial_64_290" cx="0" cy="0" r="1" gradientUnits="userSpaceOnUse" gradientTransform="translate(165.471 7.33543) rotate(131.08) scale(206.063 414.21)">
<stop stop-color="#17313B"/>
<stop offset="1" stop-color="#2E5272"/>
</radialGradient>
<linearGradient id="paint2_linear_64_290" x1="35.8339" y1="-201.842" x2="315.237" y2="34.0482" gradientUnits="userSpaceOnUse">
<stop stop-color="#D2AE73"/>
<stop offset="0.1231" stop-color="#BD9155"/>
<stop offset="0.3174" stop-color="#F9E2B2"/>
<stop offset="0.9689" stop-color="#BD9155"/>
</linearGradient>
<clipPath id="clip0_64_290">
<rect width="198" height="170" fill="white"/>
</clipPath>
</defs>
</svg>
