<svg width="158" height="43" viewBox="0 0 158 43" fill="none" xmlns="http://www.w3.org/2000/svg">
<path d="M47.2575 0H39.5327V42.0945H47.2575V0Z" fill="#2E3032"/>
<path d="M72.9295 29.3384C72.9295 35.9223 66.8791 36.4161 65.1388 36.4161C60.8293 36.4161 59.7519 32.548 59.7519 30.2436V14.0314H53.6189V30.2436C53.6189 34.2761 54.8621 37.6505 57.1827 39.9548C59.2543 41.9296 62.1552 42.9996 65.5532 42.9996C68.2055 42.9996 70.3603 42.1767 72.9295 40.6953V41.8477H79.974V14.0314H72.9295V29.3384Z" fill="#2E3032"/>
<path d="M94.3004 4.526H86.5629V14.3693H82.2461V19.7828H86.5629V42.0942H94.3004V19.7828H99.5132V14.3693H94.3004V4.526Z" fill="#2E3032"/>
<path d="M122.21 33.9638C120.562 35.3529 118.503 36.0884 116.362 36.007C111.419 36.007 107.713 32.4932 107.713 27.7537C107.713 22.9323 111.255 19.6639 116.362 19.6639C118.503 19.6639 120.645 20.3994 122.292 21.7066L123.363 22.6055L128.14 18.0295L126.905 16.9671C124.022 14.5157 120.233 13.1266 116.279 13.1266C107.383 13.1266 100.876 19.2552 100.876 27.7537C100.876 36.2519 107.548 42.5438 116.279 42.5438C120.233 42.6258 124.022 41.2366 126.987 38.7033L128.14 37.641L123.281 33.0649L122.21 33.9638Z" fill="#2E3032"/>
<path d="M153.752 16.9034C151.686 14.934 148.712 13.8672 145.325 13.8672C142.681 13.8672 139.872 14.6878 137.889 16.1647V0H130.867V42.0945H137.889V27.4886C137.889 20.9241 143.507 20.4317 145.242 20.4317C149.456 20.4317 150.199 24.2885 150.199 26.5861V42.0945H157.222V26.5861C157.139 22.4834 156.148 19.119 153.752 16.9034Z" fill="#2E3032"/>
<path d="M116.099 33.0422C118.985 33.0422 121.324 30.813 121.324 28.0633C121.324 25.3135 118.985 23.0844 116.099 23.0844C113.213 23.0844 110.873 25.3135 110.873 28.0633C110.873 30.813 113.213 33.0422 116.099 33.0422Z" fill="#FF3D2E"/>
<path d="M31.0163 32.3225C28.2872 34.9509 24.5652 36.5116 20.6778 36.4292C12.6545 36.4292 6.86505 30.4337 6.86505 22.2203C6.86505 14.0069 12.6545 7.92897 20.6778 7.92897C24.5652 7.92897 28.2872 9.40725 30.9336 12.0357L32.0092 13.1034L36.8062 8.50381L35.7311 7.43605C31.7611 3.49365 26.3019 1.35815 20.5951 1.35815C8.84986 1.35815 0 10.3107 0 22.2203C0 34.1294 8.84986 43 20.5951 43C26.3019 43 31.7611 40.8645 35.7311 36.9221L36.8062 35.8544L32.0919 31.1728L31.0163 32.3225Z" fill="#2E3032"/>
</svg>
