<svg width="233" height="45" viewBox="0 0 233 45" fill="none" xmlns="http://www.w3.org/2000/svg">
<path fill-rule="evenodd" clip-rule="evenodd" d="M139.189 31.0576C138.206 31.7033 136.903 32.0262 135.279 32.0262C133.515 32.0262 132.096 31.6121 131.021 30.784C130.496 30.3864 130.068 29.878 129.769 29.2962C129.47 28.7143 129.307 28.0738 129.293 27.4219H125C125 28.879 125.458 30.3004 126.312 31.4906C127.226 32.777 128.482 33.7905 129.943 34.4197C131.624 35.1459 133.445 35.504 135.28 35.469C138.142 35.469 140.47 34.8042 142.264 33.4746C143.119 32.8756 143.812 32.079 144.281 31.155C144.75 30.2309 144.981 29.2076 144.955 28.1749C144.993 26.9834 144.656 25.8094 143.992 24.8128C143.225 23.792 142.207 22.9801 141.033 22.4536C139.371 21.6907 137.623 21.1245 135.826 20.7667C133.683 20.2958 132.202 19.802 131.383 19.2852C130.987 19.0451 130.665 18.705 130.448 18.3004C130.232 17.8958 130.13 17.4415 130.153 16.9849C130.141 16.475 130.256 15.97 130.486 15.5131C130.717 15.0563 131.056 14.6612 131.475 14.3617C132.357 13.6931 133.579 13.3588 135.141 13.3588C136.512 13.3093 137.854 13.7552 138.913 14.6123C139.377 14.9658 139.752 15.4184 140.011 15.9358C140.271 16.4531 140.407 17.0218 140.41 17.5987H144.726C144.748 16.5361 144.52 15.483 144.059 14.5219C143.598 13.5608 142.917 12.718 142.069 12.0597C140.295 10.6155 137.985 9.89341 135.14 9.89341C132.434 9.89341 130.21 10.5929 128.469 11.992C126.728 13.391 125.858 15.0994 125.859 17.1172C125.829 18.2342 126.149 19.3332 126.775 20.265C127.509 21.2472 128.483 22.0312 129.606 22.5444C131.254 23.3034 132.992 23.8549 134.78 24.1857C136.953 24.6414 138.477 25.1846 139.351 25.8153C139.777 26.1158 140.12 26.5159 140.349 26.9796C140.578 27.4432 140.686 27.9557 140.663 28.4707C140.669 28.9912 140.536 29.5041 140.277 29.958C140.018 30.4119 139.643 30.7911 139.189 31.0576ZM149.885 22.749C149.885 26.5786 150.94 29.6557 153.052 31.9805C155.164 34.3054 157.921 35.4679 161.324 35.4682C163.437 35.5073 165.517 34.9539 167.322 33.8725C169.069 32.8005 170.464 31.2526 171.336 29.4163C172.298 27.3955 172.778 25.1853 172.742 22.954V22.6578C172.742 18.7981 171.686 15.7057 169.574 13.3806C167.463 11.0555 164.697 9.89314 161.277 9.89341C159.198 9.85834 157.15 10.4041 155.373 11.4673C153.621 12.5459 152.22 14.0965 151.336 15.9352C150.345 17.9682 149.849 20.2001 149.885 22.4544V22.7506L149.885 22.749ZM156.15 15.8424C156.737 15.0517 157.511 14.4128 158.403 13.9801C159.296 13.5474 160.282 13.3339 161.277 13.3576C162.288 13.3305 163.29 13.5456 164.198 13.9844C165.105 14.4231 165.891 15.0724 166.487 15.8763C167.794 17.5556 168.447 19.7483 168.447 22.4544C168.447 25.4784 167.805 27.83 166.52 29.5091C165.908 30.29 165.123 30.9229 164.225 31.3595C163.327 31.796 162.339 32.0247 161.337 32.028C160.335 32.0313 159.346 31.8092 158.445 31.3786C157.543 30.9479 156.754 30.3202 156.137 29.5434C154.845 27.8872 154.199 25.6914 154.199 22.956C154.2 19.8706 154.85 17.4994 156.15 15.8424ZM194.19 35.0117H198.274V10.3486H193.98V28.2879C192.897 30.6891 190.716 31.8896 187.437 31.8893C184.343 31.8893 182.797 30.0202 182.797 26.2818V10.3486H178.505V26.396C178.52 29.3899 179.228 31.6499 180.628 33.1759C182.029 34.7019 184.067 35.4655 186.742 35.4665C189.975 35.4665 192.427 34.5016 194.097 32.5718L194.19 35.0117ZM209.933 0H205.64V35.0121H209.933V0Z" fill="white" fill-opacity="0.3"/>
<path fill-rule="evenodd" clip-rule="evenodd" d="M115.749 25.3613L113.702 23.4492L118.333 10.3486H121.326L115.749 25.3613ZM110.05 40.4829C108.673 43.4765 106.546 44.9733 103.669 44.9733C102.946 44.9648 102.228 44.8574 101.535 44.6541L101.511 42.3974L102.95 42.5342C104.135 42.5885 105.303 42.2383 106.257 41.5426C107.1 40.8816 107.815 39.7457 108.403 38.1349L109.633 34.8071L100.165 10.3486H103.204L111 31.0919L111.123 30.7497L112.458 34.2256L110.608 39.2064L110.05 40.4829ZM92.5424 31.7299C90.7635 34.2224 88.1492 35.4684 84.6996 35.4682C83.3385 35.4988 81.9902 35.2024 80.7717 34.6046C79.5531 34.0068 78.501 33.1257 77.7064 32.0375C75.9351 29.7506 75.0497 26.662 75.0499 22.7716V22.4524C75.0499 18.6228 75.92 15.5721 77.6601 13.3003C78.4682 12.2054 79.5369 11.3222 80.7724 10.7282C82.0079 10.1343 83.3726 9.84763 84.7468 9.89341C88.1346 9.89341 90.7177 11.2078 92.4961 13.8366V0H95.2571V35.0121H92.6584L92.5424 31.7299ZM92.4961 17.0732C91.0572 13.867 88.6441 12.2638 85.2568 12.2635C84.1899 12.2226 83.1299 12.449 82.1761 12.9214C81.2223 13.3939 80.406 14.0969 79.8036 14.9646C78.5044 16.7653 77.8547 19.4209 77.8544 22.9314C77.8544 26.0771 78.4968 28.5579 79.7815 30.374C80.3737 31.2474 81.1838 31.9566 82.1342 32.4337C83.0847 32.9107 84.1436 33.1396 85.2097 33.0984C88.6284 33.0984 91.057 31.6168 92.4956 28.6536L92.4961 17.0732ZM65.7549 18.8057C65.7393 16.6026 65.2637 14.9614 64.328 13.8822C63.3924 12.8031 61.8958 12.2637 59.8384 12.264C58.1759 12.2449 56.5604 12.8063 55.2786 13.8483C53.9095 14.9713 52.8918 16.4531 52.3433 18.1221V35.0121H49.5835V10.3486H52.2285L52.3216 14.5655C53.1781 13.131 54.3916 11.9348 55.8477 11.0896C57.2664 10.289 58.8767 9.876 60.512 9.89341C63.2034 9.89341 65.2066 10.638 66.5216 12.1271C67.8367 13.6163 68.5018 15.8502 68.5172 18.8288V35.0117H65.7557V18.8053L65.7549 18.8057ZM40.1983 5.03771C39.9418 5.05132 39.6853 5.012 39.4453 4.92228C39.2052 4.83255 38.9868 4.69441 38.8042 4.51671C38.636 4.34577 38.5042 4.14348 38.4166 3.92171C38.3289 3.69994 38.2871 3.46317 38.2937 3.2253C38.2819 2.74177 38.4655 2.27338 38.8042 1.92299C38.9851 1.74226 39.2029 1.60136 39.4432 1.50961C39.6835 1.41785 39.9409 1.37731 40.1983 1.39069C40.457 1.37838 40.7155 1.41936 40.9573 1.51102C41.199 1.60268 41.4187 1.743 41.6021 1.92299C41.7729 2.09486 41.9071 2.29861 41.9967 2.52226C42.0864 2.74591 42.1297 2.98494 42.1241 3.2253C42.1304 3.46411 42.0874 3.70171 41.9977 3.92369C41.908 4.14567 41.7734 4.34741 41.6021 4.51671C41.417 4.69368 41.1968 4.83127 40.9552 4.9209C40.7137 5.01053 40.4561 5.05029 40.1983 5.03771ZM23.0404 35.0121L20.2355 26.5078H22.6902L23.5025 29.0628L24.1519 31.6613L24.6849 29.2678L29.836 10.3486H32.713L25.407 35.0121H23.0404ZM17.8033 19.1302L16.59 15.4545L16.2862 14.1099L15.9844 15.4775L9.65216 35.0121H7.28555L4.77339 26.5078H7.37576L8.1679 29.3364L8.58571 31.4563L9.14169 29.2242L15.1746 10.3486H17.5413L20.3392 19.1298L17.8033 19.1302ZM0 10.3486H2.8537L5.31092 19.1298H2.59375L0 10.3486ZM41.5673 35.0121H38.7829V10.3486H41.5673V35.0121Z" fill="white"/>
<path fill-rule="evenodd" clip-rule="evenodd" d="M228.425 33.796C228.444 33.4659 228.362 33.138 228.191 32.8592C228.117 32.7498 228.017 32.6617 227.901 32.6029C227.785 32.5441 227.657 32.5165 227.528 32.5228C227.393 32.5151 227.258 32.5417 227.135 32.6003C227.012 32.6589 226.905 32.7478 226.822 32.8592C226.591 33.2334 226.415 33.642 226.302 34.0708C226.209 34.387 226.099 34.6973 225.971 35H228.105C228.318 34.7308 228.425 34.3295 228.425 33.796ZM229.553 35C229.661 34.61 229.714 34.2048 229.708 33.7972C229.747 33.0307 229.543 32.272 229.126 31.6379C228.942 31.378 228.7 31.169 228.42 31.0291C228.14 30.8892 227.831 30.8228 227.521 30.8357C227.235 30.8282 226.95 30.8827 226.686 30.9957C226.421 31.1087 226.182 31.2777 225.984 31.4919C225.486 32.0961 225.132 32.8125 224.949 33.584C224.842 33.9997 224.678 34.3973 224.462 34.7648C224.412 34.8561 224.346 34.936 224.266 35H223.321C223.257 34.9504 223.201 34.8909 223.154 34.8236C222.971 34.5411 222.883 34.2042 222.903 33.8645C222.881 33.5064 222.988 33.1527 223.203 32.8718C223.309 32.752 223.44 32.6583 223.586 32.5972C223.731 32.536 223.888 32.5091 224.045 32.5183V30.8345C223.596 30.8273 223.155 30.9591 222.778 31.2131C222.399 31.4748 222.099 31.8435 221.914 32.2759C221.704 32.7662 221.599 33.2985 221.609 33.8353C221.603 34.2297 221.653 34.6221 221.757 35H217V0H221.948C221.718 0.482853 221.601 1.0175 221.61 1.55928C221.599 2.19845 221.764 2.82769 222.084 3.37365C222.411 3.91287 222.883 4.3401 223.443 4.60188C224.086 4.90327 224.786 5.05173 225.492 5.03642H225.882C226.576 5.04709 227.264 4.89567 227.894 4.59337C228.449 4.32723 228.917 3.89828 229.239 3.35946C229.557 2.81359 229.721 2.18573 229.71 1.54793C229.72 1.01039 229.605 0.479867 229.378 0H233V35H229.553ZM224.096 0H227.231C227.405 0.0673366 227.574 0.149873 227.736 0.247146C227.942 0.387931 228.11 0.581833 228.222 0.809901C228.335 1.03797 228.388 1.2924 228.378 1.54834C228.388 1.80991 228.332 2.06971 228.215 2.30171C228.098 2.53371 227.925 2.72975 227.712 2.8702C227.143 3.21 226.492 3.36992 225.837 3.33028H225.452C224.8 3.37115 224.15 3.20898 223.587 2.86453C223.382 2.72123 223.217 2.52587 223.105 2.29708C222.994 2.0683 222.941 1.81373 222.951 1.55766C222.941 1.30013 222.995 1.04421 223.108 0.814591C223.221 0.58497 223.389 0.389398 223.595 0.24674C223.756 0.149716 223.924 0.0673172 224.096 0ZM221.718 30.3168V23.6649H223.034V26.1648H229.601V27.8474H223.034V30.3168H221.718ZM226.965 18.328H221.718V16.6413H226.91C227.289 16.6216 227.668 16.6862 228.021 16.8309C228.374 16.9755 228.693 17.1968 228.957 17.48C229.485 18.1136 229.754 18.935 229.71 19.7711C229.752 20.5965 229.49 21.4078 228.979 22.0411C228.723 22.3251 228.411 22.5486 228.064 22.6967C227.718 22.8447 227.344 22.9138 226.97 22.8992H221.718V21.2166H226.921C227.125 21.2355 227.33 21.2111 227.524 21.145C227.718 21.079 227.897 20.9726 228.05 20.8323C228.299 20.5406 228.427 20.1585 228.405 19.7695C228.405 18.8234 227.925 18.3429 226.965 18.328ZM229.125 10.9214C229.443 11.5081 229.608 12.1716 229.601 12.8452V12.846V15.3754H221.718V12.8622C221.708 12.1883 221.869 11.5234 222.187 10.9356C222.499 10.3696 222.961 9.90905 223.519 9.60923C224.125 9.2839 224.799 9.12009 225.482 9.13253H225.844C226.522 9.11966 227.193 9.28046 227.797 9.60072C228.353 9.89835 228.814 10.3571 229.125 10.9214ZM223.171 12.0308C223.063 12.2929 223.016 12.5775 223.034 12.8618V13.6916H228.296V12.8784C228.313 12.5939 228.266 12.3093 228.158 12.0473C228.05 11.7853 227.884 11.5532 227.674 11.3697C227.155 10.9887 226.527 10.801 225.893 10.8371H225.476C224.83 10.7902 224.188 10.9721 223.654 11.3531C223.444 11.5366 223.279 11.7688 223.171 12.0308ZM221.718 7.91687V6.23465H229.601V7.91687H221.718Z" fill="white"/>
</svg>
