<svg width="198" height="170" fill="none" xmlns="http://www.w3.org/2000/svg"><g clip-path="url(#clip0_64_290)"><path fill-rule="evenodd" clip-rule="evenodd" d="M28.417 110.949H0l10.026-15.183L0 79.773h28.417v31.176zm141.166 0H198l-10.027-15.183L198 79.773h-28.417v31.176z" fill="#6DCDA9"/><path d="M14.667 101.761l18.883 10.472-6.7-17.055H14.667v6.583zm168.483 0l-18.883 10.472 6.7-17.055h12.183v6.583z" fill="#5EAF91"/><g filter="url(#filter0_i_64_290)"><path d="M176 42.574v84.816l-76.523 42.427-76.56-42.427V42.574L99.477.184 176 42.573z" fill="#17313B"/></g><path d="M176 42.574v84.816l-76.523 42.427-76.56-42.427V42.574L99.477.184 176 42.573z" stroke="#6DCDA9" stroke-miterlimit="10"/><g filter="url(#filter1_i_64_290)"><path d="M168.483 46.177v77.645l-69.188 38.842-69.228-38.842V46.177L99.295 7.335l69.188 38.842z" fill="url(#paint0_radial_64_290)"/><path d="M168.483 46.177v77.645l-69.188 38.842-69.228-38.842V46.177L99.295 7.335l69.188 38.842z" fill="url(#paint1_radial_64_290)"/></g><path d="M169.4 46.177v-.536l-.468-.263L99.743 6.536l-.448-.252-.449.252-69.228 38.842-.468.263v78.718l.468.263 69.228 38.842.449.252.448-.252 69.189-38.842.468-.263V46.177z" stroke="url(#paint2_linear_64_290)" stroke-width="10" stroke-miterlimit="10"/><path fill-rule="evenodd" clip-rule="evenodd" d="M14.667 101.78c0 .101.082.183.183.183h168.3a.183.183 0 00.183-.183V70.97a.183.183 0 00-.183-.183H14.85a.183.183 0 00-.183.184v30.809z" fill="#6DCDA9"/><path d="M86.35 36.678h-3.117v17.055h3.117V36.678zm10.358 11.886c0 2.668-2.441 2.868-3.143 2.868-1.74 0-2.174-1.567-2.174-2.501v-6.569h-2.474v6.569c0 1.634.501 3 1.438 3.935.835.8 2.006 1.233 3.377 1.233 1.07 0 1.94-.333 2.976-.933v.467h2.842v-11.27h-2.842v6.201zm8.622-10.053h-3.122V42.5h-1.741v2.194h1.741v9.04h3.122v-9.04h2.103V42.5h-2.103v-3.988zm11.261 11.927a3.437 3.437 0 01-2.36.828c-1.994 0-3.489-1.424-3.489-3.344 0-1.953 1.429-3.278 3.489-3.278.864 0 1.728.298 2.393.828l.432.364 1.927-1.854-.498-.43c-1.163-.993-2.692-1.556-4.287-1.556-3.589 0-6.215 2.483-6.215 5.926s2.692 5.992 6.215 5.992a6.42 6.42 0 004.32-1.556l.465-.43-1.96-1.854-.432.364zm12.726-6.912c-.834-.798-2.034-1.23-3.4-1.23-1.067 0-2.2.332-3 .93v-6.548h-2.834v17.055h2.834v-5.918c0-2.66 2.266-2.86 2.966-2.86 1.7 0 2 1.563 2 2.494v6.284h2.834v-6.284c-.034-1.662-.434-3.025-1.4-3.923z" fill="#fff"/><path d="M114.125 50.065c1.164 0 2.108-.904 2.108-2.018 0-1.114-.944-2.017-2.108-2.017-1.164 0-2.108.903-2.108 2.017 0 1.114.944 2.018 2.108 2.018z" fill="#FF3D2E"/><path d="M79.797 49.773c-1.1 1.065-2.602 1.697-4.17 1.664-3.238 0-5.574-2.43-5.574-5.757 0-3.328 2.336-5.79 5.573-5.79 1.569 0 3.07.599 4.138 1.664l.434.432 1.935-1.863-.433-.433c-1.602-1.597-3.805-2.462-6.107-2.462-4.739 0-8.31 3.627-8.31 8.452s3.571 8.42 8.31 8.42c2.302 0 4.505-.866 6.107-2.463l.433-.433-1.902-1.897-.434.466zm7.434 73.83v-10.398h4.017v1.04H88.68v3.466h1.99v1.027h-1.99v4.865h-1.45zm5.506 0l2.207-10.398h1.4l2.22 10.398H97.19l-.475-2.619h-2.117l-.5 2.619h-1.361zm2.053-3.659h1.733l-.873-4.685-.86 4.685zm6.111 3.659v-10.398h1.451v9.358h2.656v1.04h-4.107zm6.384 0v-10.398h1.451v9.358h2.656v1.04h-4.107zm-17.939 19.622v-.696l1.889-2.944c.14-.22.269-.425.385-.614.122-.19.22-.388.293-.596.08-.214.12-.459.12-.734 0-.342-.056-.611-.166-.807-.11-.195-.302-.293-.577-.293-.233 0-.413.064-.541.193a1.025 1.025 0 00-.266.504 2.918 2.918 0 00-.073.669v.248h-.981v-.257c0-.446.058-.828.174-1.146.122-.324.315-.575.578-.752.269-.177.623-.266 1.063-.266.599 0 1.045.171 1.338.514.294.336.44.803.44 1.402 0 .318-.04.596-.119.835a3.135 3.135 0 01-.293.669 13.42 13.42 0 01-.404.642l-1.705 2.604h2.347v.825h-3.502zm7.293.083c-.422 0-.77-.095-1.045-.284-.27-.19-.47-.45-.605-.78a3.093 3.093 0 01-.193-1.128v-3.2c0-.434.064-.813.193-1.137a1.61 1.61 0 01.596-.77c.275-.183.626-.275 1.054-.275.428 0 .776.092 1.045.275.269.184.467.44.596.77.128.324.192.703.192 1.137v3.2c0 .428-.067.807-.201 1.137-.129.331-.327.59-.596.78-.27.183-.614.275-1.036.275zm0-.807c.232 0 .406-.067.522-.202.123-.134.205-.305.248-.513.049-.214.073-.434.073-.66v-3.219c0-.238-.021-.461-.064-.669a1.017 1.017 0 00-.247-.514c-.117-.128-.294-.192-.532-.192-.239 0-.419.064-.54.192-.123.129-.206.3-.248.514a3.317 3.317 0 00-.065.669v3.219c0 .226.022.446.065.66.049.208.134.379.256.513.129.135.306.202.532.202zm3.654.724v-.696l1.888-2.944c.141-.22.269-.425.385-.614.122-.19.22-.388.293-.596.08-.214.12-.459.12-.734 0-.342-.055-.611-.165-.807-.11-.195-.303-.293-.578-.293-.232 0-.412.064-.541.193a1.028 1.028 0 00-.266.504 2.913 2.913 0 00-.073.669v.248h-.981v-.257c0-.446.058-.828.174-1.146.123-.324.315-.575.578-.752.269-.177.623-.266 1.063-.266.599 0 1.045.171 1.339.514.293.336.44.803.44 1.402 0 .318-.04.596-.12.835a3.134 3.134 0 01-.293.669c-.122.208-.257.422-.403.642l-1.705 2.604h2.346v.825h-3.501zm7.1.083c-.404 0-.74-.077-1.009-.229a1.447 1.447 0 01-.605-.66 2.392 2.392 0 01-.201-1.018v-.248h.971v.165c.006.22.031.419.074.596a.853.853 0 00.247.422c.122.104.297.156.523.156.238 0 .418-.055.541-.165a.901.901 0 00.247-.486c.043-.208.064-.446.064-.715 0-.392-.073-.71-.22-.954-.14-.251-.391-.388-.751-.413a.248.248 0 00-.074-.009h-.064v-.981h.128c.349-.012.599-.104.752-.275.153-.171.229-.455.229-.853 0-.336-.058-.605-.174-.807-.11-.201-.333-.302-.669-.302s-.559.113-.669.339c-.11.22-.171.504-.184.853v.156h-.971v-.248c0-.397.067-.737.201-1.018.135-.281.336-.498.605-.651.275-.152.615-.229 1.018-.229.409 0 .748.077 1.017.229.269.153.471.373.605.66.135.282.202.621.202 1.018 0 .446-.098.804-.293 1.073a1.41 1.41 0 01-.77.55c.226.068.415.184.568.349.159.165.281.376.367.632.085.251.128.545.128.881 0 .44-.061.825-.183 1.155a1.564 1.564 0 01-.587.761c-.269.177-.623.266-1.063.266zM70.819 95.017c-.998 0-1.79-.212-2.375-.636-.586-.424-1.01-1.023-1.272-1.796-.249-.785-.374-1.708-.374-2.768v-5.088c0-1.085.125-2.02.374-2.806.25-.785.686-1.384 1.31-1.796.635-.424 1.508-.636 2.617-.636 1.035 0 1.858.175 2.469.524a2.95 2.95 0 011.309 1.515c.274.649.411 1.44.411 2.376v.785h-2.637v-.86a6.05 6.05 0 00-.112-1.253c-.062-.35-.2-.611-.411-.786-.2-.187-.53-.28-.991-.28-.487 0-.842.118-1.066.355-.212.237-.35.549-.412.935-.05.387-.074.81-.074 1.272v6.341c0 .524.043.98.13 1.366.088.386.25.686.487.898.237.2.573.3 1.01.3.448 0 .791-.113 1.028-.338.237-.224.399-.536.486-.935.1-.399.15-.873.15-1.422v-1.421h-1.627v-1.74h4.114v7.688h-1.777l-.205-1.496c-.2.499-.505.91-.917 1.234-.398.312-.947.468-1.645.468zm8.52-.206V79.66h2.767v13.243h3.665v1.908h-6.433zm13.672.206c-1.072 0-1.926-.2-2.562-.599-.636-.399-1.09-.972-1.365-1.72-.275-.749-.412-1.634-.412-2.657v-5.667c0-1.023.138-1.896.412-2.62.274-.735.73-1.296 1.365-1.683.636-.386 1.49-.58 2.562-.58 1.097 0 1.957.194 2.58.58.636.387 1.091.948 1.366 1.684.286.723.43 1.596.43 2.619v5.686c0 1.01-.144 1.89-.43 2.638a3.409 3.409 0 01-1.366 1.72c-.623.4-1.483.599-2.58.599zm0-2.039c.461 0 .798-.1 1.01-.3.224-.199.374-.473.448-.822.075-.35.113-.73.113-1.141v-6.978c0-.423-.038-.804-.113-1.14-.074-.337-.224-.6-.448-.786-.212-.2-.549-.3-1.01-.3-.436 0-.767.1-.991.3-.225.187-.374.449-.45.785a5.281 5.281 0 00-.111 1.141v6.978c0 .411.03.792.093 1.14.075.35.225.624.449.824.224.2.561.3 1.01.3zm8.293 1.833V79.66h3.721c.673 0 1.278.062 1.814.187.548.125 1.016.337 1.402.636.399.287.705.68.917 1.178.212.499.318 1.129.318 1.89 0 .61-.088 1.134-.262 1.57a2.369 2.369 0 01-.73 1.048c-.324.25-.729.418-1.215.505.598.1 1.091.312 1.477.636.399.312.692.724.879 1.235.2.511.299 1.128.299 1.852 0 .723-.093 1.365-.28 1.926a3.48 3.48 0 01-.804 1.385 3.338 3.338 0 01-1.328.823c-.524.187-1.141.28-1.851.28h-4.357zm2.767-1.945h1.047c.836 0 1.403-.2 1.702-.599.299-.411.449-1.041.449-1.889 0-.611-.075-1.104-.224-1.478a1.533 1.533 0 00-.711-.86c-.324-.187-.76-.28-1.309-.28h-.954v5.106zm0-7.015h.935c.549 0 .973-.08 1.272-.243.299-.162.505-.411.617-.748.125-.337.187-.76.187-1.272 0-.536-.094-.948-.281-1.235-.174-.299-.442-.498-.804-.598-.361-.112-.822-.169-1.383-.169h-.543v4.265zm8.727 8.96l3.029-15.151h2.955l3.029 15.151h-2.562l-.598-3.498h-2.637l-.617 3.498h-2.599zm3.497-5.256h2.057l-1.029-6.36-1.028 6.36zm8.91 5.256V79.66h2.767v13.243h3.665v1.908h-6.432z" fill="#fff"/></g><defs><radialGradient id="paint0_radial_64_290" cx="0" cy="0" r="1" gradientUnits="userSpaceOnUse" gradientTransform="rotate(131.08 81.067 41.303) scale(206.063 414.21)"><stop stop-color="#17313B"/><stop offset="1" stop-color="#2E5272"/></radialGradient><radialGradient id="paint1_radial_64_290" cx="0" cy="0" r="1" gradientUnits="userSpaceOnUse" gradientTransform="rotate(131.08 81.067 41.303) scale(206.063 414.21)"><stop stop-color="#17313B"/><stop offset="1" stop-color="#2E5272"/></radialGradient><filter id="filter0_i_64_290" x="22.917" y=".183" width="153.083" height="173.633" filterUnits="userSpaceOnUse" color-interpolation-filters="sRGB"><feFlood flood-opacity="0" result="BackgroundImageFix"/><feBlend in="SourceGraphic" in2="BackgroundImageFix" result="shape"/><feColorMatrix in="SourceAlpha" values="0 0 0 0 0 0 0 0 0 0 0 0 0 0 0 0 0 0 127 0" result="hardAlpha"/><feOffset dy="4"/><feGaussianBlur stdDeviation="2"/><feComposite in2="hardAlpha" operator="arithmetic" k2="-1" k3="1"/><feColorMatrix values="0 0 0 0 0 0 0 0 0 0 0 0 0 0 0 0 0 0 0.1 0"/><feBlend in2="shape" result="effect1_innerShadow_64_290"/></filter><filter id="filter1_i_64_290" x="30.067" y="7.335" width="138.417" height="159.329" filterUnits="userSpaceOnUse" color-interpolation-filters="sRGB"><feFlood flood-opacity="0" result="BackgroundImageFix"/><feBlend in="SourceGraphic" in2="BackgroundImageFix" result="shape"/><feColorMatrix in="SourceAlpha" values="0 0 0 0 0 0 0 0 0 0 0 0 0 0 0 0 0 0 127 0" result="hardAlpha"/><feOffset dy="4"/><feGaussianBlur stdDeviation="2"/><feComposite in2="hardAlpha" operator="arithmetic" k2="-1" k3="1"/><feColorMatrix values="0 0 0 0 0 0 0 0 0 0 0 0 0 0 0 0 0 0 0.07 0"/><feBlend in2="shape" result="effect1_innerShadow_64_290"/></filter><linearGradient id="paint2_linear_64_290" x1="35.834" y1="-201.842" x2="315.237" y2="34.048" gradientUnits="userSpaceOnUse"><stop stop-color="#D2AE73"/><stop offset=".123" stop-color="#BD9155"/><stop offset=".317" stop-color="#F9E2B2"/><stop offset=".969" stop-color="#BD9155"/></linearGradient><clipPath id="clip0_64_290"><path fill="#fff" d="M0 0h198v170H0z"/></clipPath></defs></svg>