<svg width="158" height="43" fill="none" xmlns="http://www.w3.org/2000/svg"><path d="M47.258 0h-7.725v42.094h7.724V0zM72.93 29.338c0 6.584-6.05 7.078-7.791 7.078-4.31 0-5.387-3.868-5.387-6.172V14.03h-6.133v16.213c0 4.032 1.243 7.407 3.564 9.71C59.254 41.93 62.155 43 65.553 43c2.653 0 4.807-.823 7.377-2.305v1.153h7.044V14.03H72.93v15.307zM94.3 4.526h-7.737v9.843h-4.317v5.414h4.317v22.311H94.3V19.783h5.213v-5.414H94.3V4.526zm27.91 29.438c-1.648 1.389-3.707 2.124-5.848 2.043-4.943 0-8.649-3.514-8.649-8.253 0-4.822 3.542-8.09 8.649-8.09 2.141 0 4.283.735 5.93 2.043l1.071.898 4.777-4.576-1.235-1.062c-2.883-2.451-6.672-3.84-10.626-3.84-8.896 0-15.403 6.128-15.403 14.627 0 8.498 6.672 14.79 15.403 14.79a15.954 15.954 0 0010.708-3.84l1.153-1.063-4.859-4.576-1.071.899zm31.542-17.061c-2.066-1.969-5.04-3.036-8.427-3.036-2.644 0-5.453.82-7.436 2.298V0h-7.022v42.094h7.022V27.49c0-6.565 5.618-7.057 7.353-7.057 4.214 0 4.957 3.857 4.957 6.154v15.508h7.023V26.586c-.083-4.103-1.074-7.467-3.47-9.683z" fill="#2E3032"/><path d="M116.099 33.042c2.886 0 5.225-2.229 5.225-4.979s-2.339-4.979-5.225-4.979c-2.886 0-5.226 2.23-5.226 4.98 0 2.749 2.34 4.978 5.226 4.978z" fill="#FF3D2E"/><path d="M31.016 32.322c-2.729 2.629-6.45 4.19-10.338 4.107-8.024 0-13.813-5.995-13.813-14.209 0-8.213 5.79-14.291 13.813-14.291 3.887 0 7.61 1.478 10.256 4.107l1.075 1.067 4.797-4.6-1.075-1.067c-3.97-3.942-9.43-6.078-15.136-6.078C8.85 1.358 0 10.311 0 22.22 0 34.13 8.85 43 20.595 43c5.707 0 11.166-2.136 15.136-6.078l1.075-1.068-4.714-4.681-1.076 1.15z" fill="#2E3032"/></svg>