<svg width="199" height="170" fill="none" xmlns="http://www.w3.org/2000/svg"><g clip-path="url(#clip0_64_268)"><path fill-rule="evenodd" clip-rule="evenodd" d="M28.56 111.005H0L10.076 95.79 0 79.762h28.56v31.243z" fill="url(#paint0_linear_64_268)"/><path fill-rule="evenodd" clip-rule="evenodd" d="M170.44 111.005H199L188.923 95.79 199 79.762h-28.56v31.243z" fill="url(#paint1_linear_64_268)"/><path d="M14.74 101.797l18.98 10.495L26.984 95.2H14.741v6.597z" fill="#D1B685"/><path d="M184.075 101.797l-18.979 10.495L171.83 95.2h12.245v6.597z" fill="#A78557"/><g filter="url(#filter0_i_64_268)"><path d="M176.889 42.482v85L99.979 170l-76.947-42.518v-85L99.98 0l76.91 42.482z" fill="#17313B"/></g><g filter="url(#filter1_i_64_268)"><path d="M171.73 44.9v80.568l-72.025 40.305-72.066-40.305V44.899L99.705 4.595l72.025 40.304z" fill="url(#paint2_radial_64_268)"/><path d="M171.73 44.9v80.568l-72.025 40.305-72.066-40.305V44.899L99.705 4.595l72.025 40.304z" fill="url(#paint3_radial_64_268)"/></g><path d="M171.73 44.9v80.568l-72.025 40.305-72.066-40.305V44.899L99.705 4.595l72.025 40.304z" stroke="#6DCDA9" stroke-width="10" stroke-miterlimit="10"/><path fill-rule="evenodd" clip-rule="evenodd" d="M14.74 101.816c0 .102.083.184.185.184h169.15a.184.184 0 00.184-.184V70.941a.184.184 0 00-.184-.184H14.925a.184.184 0 00-.184.184v30.875z" fill="url(#paint4_linear_64_268)"/><path d="M86.786 38.41h-3.132v17.093h3.132V38.41zm10.41 11.913c0 2.674-2.453 2.874-3.159 2.874-1.748 0-2.184-1.57-2.184-2.506v-6.583h-2.487v6.583c0 1.637.504 3.007 1.445 3.943.84.802 2.016 1.236 3.394 1.236 1.076 0 1.95-.334 2.991-.935v.468h2.857V44.108h-2.857v6.215zm8.666-10.074h-3.137v3.996h-1.751v2.199h1.751v9.059h3.137v-9.06h2.114v-2.198h-2.114V40.25zm11.318 11.952a3.46 3.46 0 01-2.372.83c-2.004 0-3.507-1.427-3.507-3.351 0-1.958 1.436-3.285 3.507-3.285.869 0 1.737.298 2.405.83l.434.364 1.937-1.858-.501-.431c-1.169-.995-2.705-1.56-4.308-1.56-3.608 0-6.246 2.489-6.246 5.94 0 3.45 2.705 6.005 6.246 6.005a6.466 6.466 0 004.342-1.56l.467-.43-1.97-1.859-.434.365zm12.79-6.927c-.838-.8-2.044-1.233-3.418-1.233-1.072 0-2.211.334-3.015.933v-6.563h-2.847v17.092h2.847v-5.93c0-2.666 2.278-2.866 2.982-2.866 1.709 0 2.01 1.566 2.01 2.499v6.297h2.848v-6.297c-.034-1.666-.436-3.032-1.407-3.932z" fill="#fff"/><path d="M114.702 51.827c1.17 0 2.118-.905 2.118-2.022 0-1.116-.948-2.021-2.118-2.021-1.171 0-2.119.905-2.119 2.021 0 1.117.948 2.022 2.119 2.022z" fill="#FF3D2E"/><path d="M80.2 51.535c-1.106 1.067-2.616 1.7-4.192 1.667-3.254 0-5.601-2.434-5.601-5.77 0-3.334 2.347-5.802 5.601-5.802 1.576 0 3.086.6 4.159 1.668l.436.433 1.945-1.867-.436-.434c-1.61-1.6-3.823-2.468-6.138-2.468-4.762 0-8.351 3.635-8.351 8.47 0 4.837 3.589 8.438 8.351 8.438 2.314 0 4.528-.867 6.138-2.468l.436-.433-1.912-1.901-.436.467zm7.471 72.335v-10.42h4.037v1.042h-2.58v3.473h2v1.029h-2v4.876h-1.457zm5.534 0l2.219-10.42h1.406l2.231 10.42h-1.38l-.477-2.624h-2.128l-.504 2.624h-1.367zm2.064-3.666h1.741l-.877-4.696-.864 4.696zm6.142 3.666v-10.42h1.457v9.378h2.67v1.042h-4.127zm6.416 0v-10.42h1.458v9.378h2.67v1.042h-4.128zm-20.209 20.768v-.838l2.277-3.54c.17-.265.324-.511.465-.739.147-.228.265-.466.353-.716a2.52 2.52 0 00.144-.883c0-.411-.066-.735-.199-.97s-.365-.353-.697-.353c-.28 0-.497.077-.652.232a1.23 1.23 0 00-.32.606c-.06.25-.089.518-.089.805v.298h-1.183v-.309c0-.536.07-.996.21-1.378.148-.39.38-.691.697-.904.324-.214.752-.32 1.282-.32.722 0 1.26.206 1.614.617.354.405.531.967.531 1.687 0 .383-.048.717-.144 1.004a3.753 3.753 0 01-.353.805 16.8 16.8 0 01-.487.772l-2.056 3.131h2.83v.993h-4.223zm8.795.099c-.509 0-.929-.114-1.26-.342a2.071 2.071 0 01-.73-.937 3.713 3.713 0 01-.232-1.356v-3.849c0-.522.077-.978.232-1.367a1.93 1.93 0 01.718-.926c.332-.221.756-.331 1.272-.331s.936.11 1.26.331c.324.22.564.529.719.926.154.389.232.845.232 1.367v3.849c0 .514-.081.97-.243 1.367a2.002 2.002 0 01-.719.937c-.324.221-.74.331-1.25.331zm0-.97c.28 0 .49-.081.63-.243.147-.162.247-.367.298-.617.06-.258.089-.522.089-.794v-3.871c0-.287-.026-.555-.078-.805a1.216 1.216 0 00-.298-.617c-.14-.155-.354-.232-.641-.232-.288 0-.505.077-.653.232-.147.154-.246.36-.298.617a3.95 3.95 0 00-.077.805v3.871c0 .272.025.536.077.794.059.25.162.455.31.617.154.162.368.243.64.243zm4.406.871v-.838l2.278-3.54c.169-.265.324-.511.464-.739.148-.228.266-.466.354-.716a2.52 2.52 0 00.144-.883c0-.411-.067-.735-.199-.97-.133-.235-.365-.353-.697-.353-.28 0-.497.077-.652.232a1.23 1.23 0 00-.321.606c-.059.25-.088.518-.088.805v.298h-1.183v-.309c0-.536.07-.996.21-1.378.147-.39.38-.691.697-.904.324-.214.751-.32 1.282-.32.722 0 1.26.206 1.614.617.354.405.531.967.531 1.687 0 .383-.048.717-.144 1.004a3.705 3.705 0 01-.354.805c-.147.25-.309.507-.486.772l-2.057 3.131h2.831v.993h-4.224zm8.564.099c-.487 0-.892-.092-1.217-.276a1.73 1.73 0 01-.729-.794c-.162-.345-.243-.753-.243-1.224v-.297h1.171v.198c.008.265.037.504.089.717.059.213.158.382.298.507.148.125.358.188.631.188.287 0 .504-.066.652-.199.147-.139.247-.334.298-.584.052-.25.078-.537.078-.86 0-.471-.089-.853-.266-1.147-.169-.302-.471-.467-.906-.496a.272.272 0 00-.089-.011h-.077v-1.18h.155c.42-.015.722-.125.906-.331.185-.206.277-.548.277-1.026 0-.404-.07-.727-.21-.97-.133-.243-.402-.364-.807-.364-.406 0-.675.136-.807.408-.133.265-.207.607-.222 1.026v.187h-1.171v-.298c0-.477.081-.885.243-1.224.162-.338.405-.599.729-.783.332-.183.741-.275 1.228-.275.493 0 .902.092 1.227.275.324.184.567.449.729.794.163.339.244.747.244 1.224 0 .537-.118.967-.354 1.291a1.704 1.704 0 01-.929.661c.273.081.501.221.686.419.191.199.339.452.442.761.103.301.155.654.155 1.059 0 .529-.074.992-.221 1.389a1.88 1.88 0 01-.708.915c-.324.214-.752.32-1.282.32zm-50.99-49.698c-1.115 0-1.992-.22-2.631-.657a3.44 3.44 0 01-1.316-1.78c-.25-.763-.376-1.638-.376-2.625V84.56c0-1.038.125-1.937.376-2.7.25-.762.69-1.35 1.316-1.762.639-.412 1.516-.618 2.63-.618 1.053 0 1.874.18 2.463.543.601.35 1.027.856 1.278 1.519.25.662.376 1.43.376 2.305v1.275H59.84V83.81c0-.425-.025-.813-.075-1.162-.038-.35-.157-.625-.357-.825-.188-.213-.52-.319-.996-.319-.477 0-.827.112-1.053.337-.213.213-.35.507-.413.882a7.322 7.322 0 00-.094 1.237v6.598c0 .55.044 1.006.131 1.369.088.35.245.618.47.806.238.175.558.262.959.262.463 0 .789-.106.977-.318.2-.225.326-.519.376-.881.05-.363.075-.769.075-1.219V89.21h2.669v1.218c0 .9-.12 1.7-.357 2.4a3.141 3.141 0 01-1.26 1.63c-.588.388-1.422.582-2.5.582zm7.97-.207V79.648h2.762v6.355h3.101v-6.355h2.782v15.184h-2.782v-6.86h-3.1v6.86h-2.764zm12.083 0l3.045-15.184h2.97l3.044 15.184H84.93l-.601-3.505h-2.65l-.62 3.505h-2.613zm3.515-5.267h2.067l-1.034-6.374-1.033 6.374zm8.917 5.267l.263-15.184h2.875l2.162 10.517 2.255-10.517h2.782l.282 15.184h-2.068l-.225-10.553-2.161 10.553H95.37l-2.2-10.591-.206 10.591h-2.086zm14.746 0V79.648h4.473c.915 0 1.654.169 2.218.506.577.338.996.831 1.259 1.481.276.638.414 1.412.414 2.325 0 .987-.169 1.787-.508 2.4a3.023 3.023 0 01-1.428 1.311c-.601.275-1.316.413-2.143.413h-1.503v6.748h-2.782zm2.782-8.698h1.052c.502 0 .89-.068 1.166-.206.288-.15.482-.381.582-.694.113-.324.169-.756.169-1.293 0-.55-.043-.993-.131-1.33-.075-.35-.251-.607-.526-.77-.263-.162-.683-.243-1.26-.243h-1.052v4.536zm9.084 8.698V79.648h2.744v15.184h-2.744zm11.115.207c-1.078 0-1.936-.2-2.575-.6-.639-.4-1.096-.975-1.372-1.725-.276-.75-.413-1.637-.413-2.662v-5.68c0-1.025.137-1.9.413-2.624.276-.738.733-1.3 1.372-1.687.639-.388 1.497-.582 2.575-.582 1.103 0 1.967.194 2.594.582.639.387 1.096.95 1.372 1.687.288.725.432 1.6.432 2.624v5.699c0 1.012-.144 1.893-.432 2.643a3.42 3.42 0 01-1.372 1.725c-.627.4-1.491.6-2.594.6zm0-2.044c.464 0 .802-.1 1.015-.3.225-.2.376-.474.451-.824.075-.35.113-.731.113-1.144v-6.992c0-.425-.038-.806-.113-1.144-.075-.337-.226-.6-.451-.787-.213-.2-.551-.3-1.015-.3-.439 0-.771.1-.996.3-.226.187-.376.45-.451.787a5.289 5.289 0 00-.113 1.144v6.992c0 .412.031.794.094 1.144.075.35.226.624.451.824.226.2.564.3 1.015.3zm8.335 1.837V79.648h1.936l3.702 8.66v-8.66h2.293v15.184h-1.842l-3.721-9.073v9.073h-2.368z" fill="#fff"/></g><defs><linearGradient id="paint0_linear_64_268" x1="1.19" y1="37.688" x2="57.612" y2="86.553" gradientUnits="userSpaceOnUse"><stop stop-color="#D2AE73"/><stop offset=".123" stop-color="#BD9155"/><stop offset=".317" stop-color="#F9E2B2"/><stop offset=".969" stop-color="#BD9155"/></linearGradient><linearGradient id="paint1_linear_64_268" x1="197.81" y1="37.688" x2="141.388" y2="86.553" gradientUnits="userSpaceOnUse"><stop stop-color="#D2AE73"/><stop offset=".123" stop-color="#BD9155"/><stop offset=".317" stop-color="#F9E2B2"/><stop offset=".969" stop-color="#BD9155"/></linearGradient><linearGradient id="paint4_linear_64_268" x1="21.804" y1="28.683" x2="43.175" y2="138.539" gradientUnits="userSpaceOnUse"><stop stop-color="#D2AE73"/><stop offset=".123" stop-color="#BD9155"/><stop offset=".317" stop-color="#F9E2B2"/><stop offset=".969" stop-color="#BD9155"/></linearGradient><radialGradient id="paint2_radial_64_268" cx="0" cy="0" r="1" gradientUnits="userSpaceOnUse" gradientTransform="matrix(-140.95355 161.18015 -324.13155 -283.45608 168.594 4.595)"><stop stop-color="#17313B"/><stop offset="1" stop-color="#2E5272"/></radialGradient><radialGradient id="paint3_radial_64_268" cx="0" cy="0" r="1" gradientUnits="userSpaceOnUse" gradientTransform="matrix(-140.95355 161.18015 -324.13155 -283.45608 168.594 4.595)"><stop stop-color="#17313B"/><stop offset="1" stop-color="#2E5272"/></radialGradient><filter id="filter0_i_64_268" x="23.032" y="0" width="153.856" height="174" filterUnits="userSpaceOnUse" color-interpolation-filters="sRGB"><feFlood flood-opacity="0" result="BackgroundImageFix"/><feBlend in="SourceGraphic" in2="BackgroundImageFix" result="shape"/><feColorMatrix in="SourceAlpha" values="0 0 0 0 0 0 0 0 0 0 0 0 0 0 0 0 0 0 127 0" result="hardAlpha"/><feOffset dy="4"/><feGaussianBlur stdDeviation="2"/><feComposite in2="hardAlpha" operator="arithmetic" k2="-1" k3="1"/><feColorMatrix values="0 0 0 0 0 0 0 0 0 0 0 0 0 0 0 0 0 0 0.1 0"/><feBlend in2="shape" result="effect1_innerShadow_64_268"/></filter><filter id="filter1_i_64_268" x="27.639" y="4.595" width="144.091" height="165.178" filterUnits="userSpaceOnUse" color-interpolation-filters="sRGB"><feFlood flood-opacity="0" result="BackgroundImageFix"/><feBlend in="SourceGraphic" in2="BackgroundImageFix" result="shape"/><feColorMatrix in="SourceAlpha" values="0 0 0 0 0 0 0 0 0 0 0 0 0 0 0 0 0 0 127 0" result="hardAlpha"/><feOffset dy="4"/><feGaussianBlur stdDeviation="2"/><feComposite in2="hardAlpha" operator="arithmetic" k2="-1" k3="1"/><feColorMatrix values="0 0 0 0 0 0 0 0 0 0 0 0 0 0 0 0 0 0 0.07 0"/><feBlend in2="shape" result="effect1_innerShadow_64_268"/></filter><clipPath id="clip0_64_268"><path fill="#fff" d="M0 0h199v170H0z"/></clipPath></defs></svg>