<svg width="233" height="45" fill="none" xmlns="http://www.w3.org/2000/svg"><path fill-rule="evenodd" clip-rule="evenodd" d="M139.189 31.058c-.983.645-2.286.968-3.91.968-1.764 0-3.183-.414-4.258-1.242a4.378 4.378 0 01-1.252-1.488 4.303 4.303 0 01-.476-1.874H125a6.98 6.98 0 001.312 4.069 8.646 8.646 0 003.631 2.929 12.844 12.844 0 005.337 1.049c2.862 0 5.19-.665 6.984-1.994a6.337 6.337 0 002.017-2.32c.469-.924.7-1.947.674-2.98a5.733 5.733 0 00-.963-3.362 7.577 7.577 0 00-2.959-2.36 23.468 23.468 0 00-5.207-1.686c-2.143-.471-3.624-.965-4.443-1.482a2.574 2.574 0 01-.935-.985 2.523 2.523 0 01-.295-1.315 3.11 3.11 0 01.333-1.472 3.18 3.18 0 01.989-1.151c.882-.669 2.104-1.003 3.666-1.003a5.673 5.673 0 013.772 1.253c.464.354.839.806 1.098 1.324.26.517.396 1.086.399 1.663h4.316a6.787 6.787 0 00-.667-3.077 6.892 6.892 0 00-1.99-2.462c-1.774-1.444-4.084-2.167-6.929-2.167-2.706 0-4.93.7-6.671 2.099-1.741 1.399-2.611 3.107-2.61 5.125a5.384 5.384 0 00.916 3.148 7.342 7.342 0 002.831 2.28 21.886 21.886 0 005.174 1.64c2.173.456 3.697 1 4.571 1.63.426.3.769.7.998 1.165.229.463.337.976.314 1.49a2.932 2.932 0 01-.386 1.488 3 3 0 01-1.088 1.1zm10.696-8.309c0 3.83 1.055 6.907 3.167 9.232 2.112 2.324 4.869 3.487 8.272 3.487 2.113.04 4.193-.514 5.998-1.596a10.54 10.54 0 004.014-4.456 14.486 14.486 0 001.406-6.462v-.296c0-3.86-1.056-6.952-3.168-9.277-2.111-2.325-4.877-3.488-8.297-3.488a11.14 11.14 0 00-5.904 1.574 10.693 10.693 0 00-4.037 4.468 14.35 14.35 0 00-1.451 6.52v.296-.002zm6.265-6.907a6.145 6.145 0 012.253-1.862 6.251 6.251 0 012.874-.622 6.325 6.325 0 012.921.626 6.219 6.219 0 012.289 1.892c1.307 1.68 1.96 3.872 1.96 6.578 0 3.024-.642 5.376-1.927 7.055a6.557 6.557 0 01-2.295 1.85 6.659 6.659 0 01-5.78.02 6.55 6.55 0 01-2.308-1.836c-1.292-1.656-1.938-3.852-1.938-6.587.001-3.085.651-5.457 1.951-7.114zm38.04 19.17h4.084V10.349h-4.294v17.939c-1.083 2.401-3.264 3.602-6.543 3.601-3.094 0-4.64-1.869-4.64-5.607V10.349h-4.292v16.047c.015 2.994.723 5.254 2.123 6.78 1.401 1.526 3.439 2.29 6.114 2.29 3.233 0 5.685-.964 7.355-2.894l.093 2.44zM209.933 0h-4.293v35.012h4.293V0z" fill="#fff" fill-opacity=".3"/><path fill-rule="evenodd" clip-rule="evenodd" d="M115.749 25.361l-2.047-1.912 4.631-13.1h2.993l-5.577 15.012zm-5.699 15.122c-1.377 2.994-3.504 4.49-6.381 4.49a7.911 7.911 0 01-2.134-.319l-.024-2.257 1.439.137a5.21 5.21 0 003.307-.991c.843-.661 1.558-1.797 2.146-3.408l1.23-3.328-9.468-24.458h3.039L111 31.092l.123-.342 1.335 3.476-1.85 4.98-.558 1.277zM92.542 31.73c-1.779 2.492-4.393 3.738-7.842 3.738a8.488 8.488 0 01-3.928-.863 8.342 8.342 0 01-3.066-2.567c-1.77-2.287-2.656-5.376-2.656-9.266v-.32c0-3.83.87-6.88 2.61-9.152a8.377 8.377 0 013.112-2.572 8.522 8.522 0 013.975-.835c3.388 0 5.97 1.315 7.75 3.944V0h2.76v35.012h-2.599l-.116-3.282zm-.046-14.657c-1.439-3.206-3.852-4.81-7.24-4.81a6.392 6.392 0 00-3.08.658 6.28 6.28 0 00-2.372 2.044c-1.3 1.8-1.95 4.456-1.95 7.966 0 3.146.643 5.627 1.927 7.443a6.202 6.202 0 002.353 2.06c.95.477 2.01.706 3.076.664 3.418 0 5.847-1.481 7.286-4.444v-11.58zm-26.741 1.733c-.016-2.203-.491-3.845-1.427-4.924-.936-1.079-2.432-1.618-4.49-1.618a7.102 7.102 0 00-4.56 1.584 9.277 9.277 0 00-2.935 4.274v16.89h-2.76V10.35h2.645l.094 4.216a9.879 9.879 0 013.526-3.475 9.293 9.293 0 014.664-1.197c2.691 0 4.695.745 6.01 2.234 1.315 1.49 1.98 3.723 1.995 6.702v16.183h-2.761V18.805h-.001zM40.198 5.038a1.868 1.868 0 01-1.394-.521 1.782 1.782 0 01-.51-1.292 1.81 1.81 0 01.51-1.302 1.825 1.825 0 011.394-.532 1.889 1.889 0 011.404.532 1.8 1.8 0 01.522 1.302 1.741 1.741 0 01-.522 1.292 1.884 1.884 0 01-1.404.52zM23.04 35.012l-2.805-8.504h2.455l.813 2.555.649 2.598.533-2.393 5.151-18.92h2.877l-7.306 24.664H23.04zM17.803 19.13l-1.213-3.675-.304-1.345-.302 1.367-6.332 19.535H7.286l-2.513-8.504h2.603l.792 2.828.418 2.12.556-2.232 6.033-18.875h2.366l2.798 8.78-2.536.001zM0 10.35h2.854l2.457 8.78H2.594L0 10.35zm41.567 24.663h-2.784V10.35h2.784v24.663zm186.858-1.217a1.616 1.616 0 00-.234-.937.772.772 0 00-.29-.256.743.743 0 00-.373-.08.807.807 0 00-.393.077.843.843 0 00-.313.26 4.483 4.483 0 00-.52 1.21 8.656 8.656 0 01-.331.93h2.134c.213-.27.32-.67.32-1.204zM229.553 35c.108-.39.161-.795.155-1.203a3.6 3.6 0 00-.582-2.16 1.915 1.915 0 00-.706-.608 1.84 1.84 0 00-.899-.193 1.99 1.99 0 00-.835.16 2.053 2.053 0 00-.702.496 5.16 5.16 0 00-1.035 2.092 4.587 4.587 0 01-.487 1.18.779.779 0 01-.196.236h-.945a.807.807 0 01-.167-.176 1.593 1.593 0 01-.251-.96 1.485 1.485 0 01.3-.992 1.056 1.056 0 01.842-.354v-1.684a2.203 2.203 0 00-1.267.38 2.47 2.47 0 00-.864 1.062 3.785 3.785 0 00-.305 1.56 4.15 4.15 0 00.148 1.164H217V0h4.948a3.495 3.495 0 00-.338 1.56 3.476 3.476 0 00.474 1.814 3.16 3.16 0 001.359 1.228 4.59 4.59 0 002.049.434h.39a4.49 4.49 0 002.012-.443 3.165 3.165 0 001.345-1.234 3.483 3.483 0 00.471-1.811A3.472 3.472 0 00229.378 0H233v35h-3.447zm-5.457-35h3.135c.174.067.343.15.505.247.206.14.374.335.486.563.113.228.166.482.156.738.01.262-.046.522-.163.754-.117.232-.29.428-.503.568-.569.34-1.22.5-1.875.46h-.385a3.19 3.19 0 01-1.865-.465 1.487 1.487 0 01-.482-.568 1.556 1.556 0 01-.154-.74c-.01-.257.044-.513.157-.742a1.49 1.49 0 01.487-.568 3.28 3.28 0 01.501-.247zm-2.378 30.317v-6.652h1.316v2.5h6.567v1.682h-6.567v2.47h-1.316zm5.247-11.989h-5.247v-1.687h5.192c.379-.02.758.045 1.111.19.353.145.672.366.936.649a3.31 3.31 0 01.753 2.291 3.349 3.349 0 01-.731 2.27 2.614 2.614 0 01-.915.656c-.346.148-.72.217-1.094.202h-5.252v-1.682h5.203a1.47 1.47 0 001.129-.385c.249-.291.377-.674.355-1.063 0-.946-.48-1.426-1.44-1.441zm2.16-7.407c.318.587.483 1.25.476 1.924v2.531h-7.883v-2.514a3.929 3.929 0 01.469-1.926 3.32 3.32 0 011.332-1.327 3.992 3.992 0 011.963-.476h.362a4.004 4.004 0 011.953.468 3.3 3.3 0 011.328 1.32zm-5.954 1.11a1.872 1.872 0 00-.137.83v.83h5.262v-.813a1.88 1.88 0 00-.138-.83 1.821 1.821 0 00-.484-.678 2.744 2.744 0 00-1.781-.533h-.417a2.786 2.786 0 00-1.822.516c-.21.184-.375.416-.483.678zm-1.453-4.114V6.235h7.883v1.682h-7.883z" fill="#fff"/></svg>